<svg xmlns="http://www.w3.org/2000/svg" width="129" height="39" fill="none"><defs/><path fill="#1D2F3C" d="M17.806 15.361c0 5.037-4.863 5.75-9.358 5.75-1.896.01-3.79-.129-5.665-.414V4.55c-.64.097-1.277.208-1.912.334-.371-.998-.277-2.865.46-3.465A41.17 41.17 0 018.134.865c4.889 0 8.7 1.284 8.7 5.313 0 2.264-.964 3.78-3.388 4.526 2.769.336 4.36 1.78 4.36 4.657zM5.206 4.296c.993.029 1.752.875 1.752 2.847V9.39h1.65c2.978 0 4.103-.76 4.103-2.714 0-1.827-1.592-2.49-4.819-2.49-.89.008-1.789.037-2.685.11zm8.395 10.816c0-2.262-1.65-2.555-4.358-2.555-.583 0-1.517.015-2.282.03V17.8c.773.118 1.554.176 2.336.174 2.683 0 4.304-.627 4.304-2.862zm6.395-4.058C19.996 3.45 24.58.688 29.324.688s9.314 2.76 9.314 10.378c0 7.616-4.583 10.364-9.314 10.364-4.732 0-9.329-2.766-9.329-10.374v-.002zm14.175 0c0-3.882-1.139-6.875-4.847-6.875-3.709 0-4.86 2.993-4.86 6.875 0 3.883 1.139 6.876 4.86 6.876 3.72 0 4.847-2.993 4.847-6.876zm23.169 9.43c-.247.38-1.329.613-2.283.613a7.054 7.054 0 01-2.175-.261 64.989 64.989 0 01-3.357-6.85c-1.008.134-2.021.211-3.037.233v6.615a7.095 7.095 0 01-2.087.26 6.674 6.674 0 01-2.088-.26V4.574c-.622.086-1.27.207-1.914.319-.377-1.006-.276-2.874.453-3.474a33.69 33.69 0 016.205-.554c5.533 0 9.503 1.577 9.503 6.249 0 2.917-1.246 4.744-3.358 5.81 1.351 2.612 2.636 4.919 4.139 7.56h-.001zM46.48 6.894v4.175c4.262-.145 6.072-.83 6.072-3.709 0-2.568-2.03-3.167-5.503-3.167-.687 0-1.401.03-2.146.088.875.116 1.577.92 1.577 2.612zm30.978 3.56c0 7.264-4.072 10.674-11.037 10.674a37.43 37.43 0 01-5.53-.39V4.758c-.613.087-1.255.174-1.912.279-.37-1.15-.28-3.018.46-3.632a43.693 43.693 0 016.597-.54c6.869 0 11.422 2.598 11.422 9.59zm-4.116.337c0-5.007-2.54-6.394-7.167-6.394-.673 0-1.372.03-2.132.073.598.336 1.021 1.11 1.021 2.423V17.77c.648.102 1.302.15 1.957.146 4.379 0 6.322-2.468 6.322-7.125h-.001zm22.83-.087c2.422-.745 3.385-2.262 3.385-4.526 0-4.029-3.81-5.313-8.7-5.313a41.17 41.17 0 00-6.802.554c-.73.6-.83 2.467-.452 3.474.634-.128 1.272-.24 1.912-.334v16.146c1.873.285 3.768.424 5.665.414 4.495 0 9.357-.714 9.357-5.75-.008-2.884-1.602-4.33-4.366-4.665zm-8.234-6.408c.893-.07 1.79-.105 2.685-.103 3.228 0 4.82.656 4.82 2.491 0 1.955-1.126 2.715-4.103 2.715h-1.65V7.142c-.01-1.97-.77-2.818-1.763-2.847h.011zm4.082 13.678a15.255 15.255 0 01-2.337-.175v-5.213c.761-.016 1.522-.025 2.283-.029 2.698 0 4.359.293 4.359 2.555s-1.624 2.862-4.305 2.862zm11.724-16.7v19.561a7.278 7.278 0 002.18.261c.761 0 1.607-.057 2.192-.26V1.273c-.585-.207-1.432-.264-2.192-.264a7.244 7.244 0 00-2.185.264h.005zm17.64-.162c-.584-.261-1.475-.378-2.365-.378-.89 0-1.796.116-2.423.378.415.687.789 1.403 1.153 2.13-.875.381-1.796 1.491-2.759 4.152a143.843 143.843 0 00-4.151 13.11c.278.414 1.621.568 2.554.568a4.043 4.043 0 001.535-.247c.291-1.245.597-2.438.904-3.636h7.853a220.3 220.3 0 011.081 3.636c.49.18 1.011.265 1.533.247.935 0 2.283-.145 2.555-.568-2.019-6.648-4.704-14.312-7.479-19.392H121.384zm-4.643 12.867a104.987 104.987 0 012.76-8.059 84.917 84.917 0 013.138 8.06h-5.898zM2.796 38.676v-9.753a1.85 1.85 0 01.745-.124c.257-.01.514.032.754.124v9.753a1.913 1.913 0 01-.755.123 1.88 1.88 0 01-.745-.123zm8.803-4.177c1.139-.471 1.828-1.378 1.828-2.864 0-2.16-1.567-2.892-4.082-2.892a17.123 17.123 0 00-2.517.174v9.753c.238.09.491.13.747.123.254.008.508-.034.746-.123v-3.764c.225.014.451.021.66.021.417.003.833-.023 1.246-.077a39.619 39.619 0 001.894 3.856c.27.073.551.105.83.093.384 0 .768-.087.87-.224a67.423 67.423 0 01-2.223-4.076zm-2.59-.747c-.208 0-.443 0-.69-.02v-3.67a8.018 8.018 0 011.183-.072c1.827 0 2.466.564 2.466 1.768.002 1.378-.855 1.994-2.96 1.994zm106.56.747c1.136-.471 1.826-1.378 1.826-2.864 0-2.16-1.565-2.892-4.082-2.892a16.924 16.924 0 00-2.516.174v9.753a2.335 2.335 0 001.492 0v-3.764c.227.014.451.021.661.021.42.004.84-.022 1.257-.077a39.143 39.143 0 001.887 3.856c.27.073.55.105.829.093.386 0 .77-.087.872-.224a64.354 64.354 0 01-2.226-4.076zm-2.588-.747c-.207 0-.442 0-.69-.02v-3.67a8.005 8.005 0 011.183-.072c1.829 0 2.466.564 2.466 1.768-.002 1.378-.857 1.994-2.96 1.994h.001zm-97.168 4.924v-9.753a2.322 2.322 0 011.5 0v9.753a2.359 2.359 0 01-1.5 0zm3.6-.566a1.683 1.683 0 01.455-1.245c.906.535 1.696.797 2.56.797 1.203 0 1.867-.486 1.867-1.471 0-.797-.535-1.246-1.884-1.777l-.372-.146c-1.559-.622-2.538-1.325-2.538-2.886 0-1.66 1.125-2.698 3.344-2.698.9-.008 1.791.19 2.604.58.066.475-.059.959-.349 1.342a4.412 4.412 0 00-2.32-.654c-1.218 0-1.776.465-1.776 1.276 0 .893.689 1.3 1.776 1.733l.471.19c1.588.644 2.544 1.32 2.544 2.93 0 1.785-1.18 2.828-3.378 2.828a5.745 5.745 0 01-3.005-.798v-.001zm15.744-9.193v9.753a2.36 2.36 0 01-1.5 0v-4.389h-4.288v4.395c-.24.092-.496.133-.752.123-.256.01-.51-.032-.748-.123v-9.753a2.322 2.322 0 011.5 0v4.103h4.285v-4.109a2.321 2.321 0 011.5 0h.003zm7.332 1.215v3.172h3.57c.069.2.1.41.093.622a1.82 1.82 0 01-.094.642H42.49v4.1a2.105 2.105 0 01-.767.11 2.17 2.17 0 01-.768-.11v-9.803h5.436a1.6 1.6 0 01.102.64c.008.214-.026.425-.101.623l-3.902.005zm5.282 3.664c0-3.306 1.806-5.112 4.503-5.112 2.698 0 4.495 1.805 4.495 5.112 0 3.306-1.805 5.114-4.495 5.114-2.69 0-4.503-1.806-4.503-5.114zm7.396 0c0-2.491-1.038-3.859-2.893-3.859-1.855 0-2.905 1.364-2.905 3.859 0 2.494 1.038 3.858 2.905 3.858 1.868 0 2.893-1.364 2.893-3.858zm3.15 0c0-3.306 1.806-5.112 4.501-5.112 2.696 0 4.506 1.808 4.506 5.112 0 3.303-1.805 5.114-4.497 5.114-2.691 0-4.51-1.806-4.51-5.114zm7.397 0c0-2.491-1.038-3.859-2.895-3.859-1.858 0-2.905 1.364-2.905 3.859 0 2.494 1.037 3.858 2.904 3.858 1.869 0 2.895-1.364 2.895-3.858h.001zm11.364-.297c0 3.528-1.697 5.344-5.188 5.344a17.843 17.843 0 01-2.698-.195v-9.717c.942-.13 1.892-.193 2.843-.188 3.383 0 5.043 1.348 5.043 4.756zm-1.538.093c0-2.718-.95-3.573-3.528-3.573a9.493 9.493 0 00-1.311.087v7.388c.458.075.922.109 1.386.101 2.482 0 3.462-1.363 3.462-4.003h-.009zm13.527 2.343c0 2.503-2.218 2.906-4.262 2.906a15.736 15.736 0 01-2.59-.208v-9.716a18.31 18.31 0 012.552-.169c2.735 0 3.924.944 3.924 2.605 0 1.117-.464 1.913-1.633 2.283 1.276.154 2.009.886 2.009 2.3zm-5.373-5.91v3.113h.799c1.478 0 2.71-.17 2.71-1.697 0-1.117-.977-1.487-2.283-1.487-.409 0-.819.024-1.226.071zm3.88 5.91c0-1.326-.979-1.582-2.545-1.582h-1.335v3.195c.45.066.903.1 1.358.102 1.572-.002 2.523-.372 2.523-1.715zm2.853-2.14c0-3.306 1.804-5.11 4.502-5.11 2.699 0 4.495 1.805 4.495 5.11 0 3.307-1.8 5.115-4.498 5.115-2.699 0-4.5-1.806-4.5-5.114zm7.396 0c0-2.49-1.038-3.858-2.893-3.858-1.856 0-2.905 1.364-2.905 3.859 0 2.494 1.036 3.858 2.904 3.858 1.869 0 2.902-1.364 2.902-3.858h-.008zm11.198 4.79c-.102.152-.608.208-.957.208a1.415 1.415 0 01-.581-.102 87.194 87.194 0 00-.602-2.075h-4.372c-.207.674-.399 1.37-.594 2.075-.184.075-.382.11-.581.102-.348 0-.855-.058-.965-.207.878-3.213 2.134-6.926 3.402-9.674a3.766 3.766 0 011.867 0c1.258 2.752 2.505 6.466 3.383 9.673zm-2.515-3.2a114.027 114.027 0 00-1.808-5.244 116.559 116.559 0 00-1.805 5.237l3.613.007zm21.118-1.886c0 3.528-1.698 5.344-5.188 5.344a17.856 17.856 0 01-2.699-.195v-9.717c.943-.13 1.893-.193 2.844-.188 3.383 0 5.043 1.348 5.043 4.756zm-1.538.093c0-2.718-.951-3.573-3.528-3.573a9.5 9.5 0 00-1.312.087v7.388c.459.075.923.109 1.387.101 2.473 0 3.453-1.363 3.453-4.003z"/></svg>