<svg xmlns="http://www.w3.org/2000/svg" width="162" height="52" fill="none"><defs/><path fill="#1D2F3C" fill-rule="evenodd" d="M35.605 22.175c2.96 0 4.47 1.537 5.295 3.53l-2.761 1.053c-.342-1.366-1.224-2.191-2.676-2.191-2.135 0-3.074 2.078-3.074 4.326 0 2.22.882 4.299 3.102 4.299 1.51 0 2.192-.883 2.648-2.05l2.818 1.082c-1.025 1.879-2.534 3.388-5.409 3.388-3.843 0-6.29-2.676-6.29-6.719-.03-4.013 2.419-6.718 6.347-6.718zM53.738 35.27h-2.903v-1.907c-.769 1.31-1.993 2.248-3.957 2.248-2.42 0-4.44-1.423-4.44-4.27v-8.824h3.045V30.6c0 1.822 1.139 2.534 2.306 2.534 1.48 0 2.904-1.31 2.904-3.843v-6.747h3.045V35.27zm31.684-2.79c-.997 1.908-2.762 3.16-5.438 3.16-3.9 0-6.32-2.704-6.32-6.747 0-4.013 2.477-6.69 6.207-6.69 4.099 0 6.006 3.104 6.006 6.577v.854h-9.11c.086 1.907.912 3.729 3.189 3.729 1.566 0 2.306-.797 2.818-1.908l2.648 1.025zm-8.597-4.896h5.978c-.086-2.021-1.253-3.188-2.96-3.188-1.794 0-2.847 1.338-3.018 3.188zm10.902-5.067h2.932v1.936c.74-1.31 2.021-2.278 4.014-2.278 2.477 0 4.526 1.424 4.526 4.299v8.796h-3.074v-8.085c0-1.821-1.196-2.533-2.363-2.533-1.537 0-2.96 1.31-2.96 3.843v6.746h-3.075V22.517zm19.5-.342c2.96 0 4.469 1.537 5.295 3.53l-2.762 1.053c-.341-1.366-1.224-2.191-2.675-2.191-2.135 0-3.075 2.078-3.075 4.326 0 2.22.883 4.299 3.103 4.299 1.509 0 2.192-.883 2.647-2.05l2.819 1.082c-1.025 1.879-2.534 3.388-5.409 3.388-3.843 0-6.291-2.676-6.291-6.719-.029-4.013 2.391-6.718 6.348-6.718zm25.477-3.16c.797 0 1.452.37 1.822.74l.94-2.533c-.741-.455-1.936-.712-3.075-.712-2.192 0-4.554 1.196-4.554 4.754v1.281h-5.21s-2.846 7.772-3.302 9.309h-.028c-.513-1.537-3.359-9.309-3.359-9.309h-3.132l5.01 12.782-2.106 5.352h2.989l6.006-15.885h3.16v10.504h3.046V24.794h2.306l.854-2.249h-3.16v-1.309c0-1.594.74-2.22 1.793-2.22zm9.992 14.604c-.825 1.195-2.05 1.992-4.071 1.992-2.562 0-4.27-1.394-4.27-3.643 0-3.416 3.929-4.441 8.284-4.441v-.797c0-1.338-.74-2.277-2.334-2.277-1.623 0-2.391.91-2.42 1.992l-2.96-.427c.256-2.505 2.676-3.843 5.494-3.843 3.074 0 5.209 1.566 5.209 4.64v6.718c0 .77.142 1.253.285 1.737h-2.961c-.114-.228-.256-.94-.256-1.651zm-.057-3.046V29.52c-3.16 0-5.266.598-5.266 2.277 0 1.025.882 1.566 2.106 1.566 1.594 0 3.16-1.025 3.16-2.79zm5.323-8.056h3.075V35.27h-3.075V22.517zm12.668 2.534a2.537 2.537 0 00-1.11-.257c-1.481 0-3.103 1.281-3.103 4.043v6.433h-3.075V22.517h2.876v2.078c.711-1.623 2.021-2.42 3.757-2.42.513 0 1.11.086 1.623.285l-.968 2.59zm-97.27 0a2.536 2.536 0 00-1.11-.257c-1.48 0-3.103 1.281-3.103 4.043v6.433h-3.074V22.517h2.875v2.078c.711-1.623 2.02-2.42 3.757-2.42.513 0 1.11.086 1.623.285l-.968 2.59zm9.422 0a2.536 2.536 0 00-1.11-.257c-1.48 0-3.103 1.281-3.103 4.043v6.433h-3.074V22.517h2.875v2.078c.712-1.623 2.021-2.42 3.758-2.42.512 0 1.11.086 1.622.285l-.968 2.59z" clip-rule="evenodd"/><path fill="#1D2F3C" d="M151.194 18.951a1.965 1.965 0 10-3.404-1.964 1.965 1.965 0 003.404 1.964zM9.615 51.439a9.365 9.365 0 100-18.73 9.365 9.365 0 000 18.73zM22.852 14.062a7.031 7.031 0 100-14.062 7.031 7.031 0 000 14.062zM15.423 31.427a4.697 4.697 0 100-9.394 4.697 4.697 0 000 9.394zM18.725 20.297a2.334 2.334 0 100-4.669 2.334 2.334 0 000 4.669z"/></svg>