<svg xmlns="http://www.w3.org/2000/svg" width="180" height="29" fill="currentColor"><defs/><path d="M64.785 18.395h1.404v3.318h-2.43c-1.718 0-2.62-.88-2.62-2.56V7.088l3.667-2.049-.02 13.356zm17.979-6.596c0-4.281-1.886-6.37-5.742-6.37-2.367 0-4.065 1.515-4.966 2.498v-2.15h-3.645v15.936h3.645v-7.251c0-.676.063-1.25.21-1.7.566-2.028 2.43-3.872 4.505-3.872 1.76 0 2.326.84 2.326 3.421v6.842c0 1.68.9 2.56 2.598 2.56h2.43v-3.318h-1.403v-6.596h.042zm-67.45 3.482c0 3.83-2.787 6.412-6.935 6.412H.5V.103h7.627c3.814 0 6.37 2.355 6.37 5.837 0 1.721-.629 3.196-1.802 4.24 1.655 1.025 2.62 2.889 2.62 5.101zM4.21 8.767h3.897c1.593 0 2.62-1.044 2.62-2.683 0-1.618-.985-2.602-2.662-2.602H4.21v5.285zm7.313 6.473c0-1.905-1.258-3.134-3.185-3.134H4.209v6.207h4.17c1.97 0 3.143-1.147 3.143-3.073zM63.067 4.384c1.237 0 2.242-.984 2.242-2.192C65.31.983 64.304 0 63.067 0a2.202 2.202 0 00-2.22 2.192c-.022 1.208.984 2.192 2.22 2.192zM31.763 14.667H20.678c.377 2.458 2.2 4.035 4.757 4.035 2.158 0 3.625-1.352 3.792-1.516l.734-.737 1.907 2.868-.482.47c-.084.083-2.368 2.275-6.014 2.275-4.924 0-8.486-3.462-8.486-8.256 0-4.875 3.31-8.275 8.046-8.275 4.82 0 6.956 3.707 6.956 7.374 0 .369-.062 1.004-.062 1.065l-.063.697zm-3.688-3.155c-.335-1.741-1.509-2.765-3.185-2.765-1.865 0-3.31 1.024-3.96 2.765h7.145zm18.544 6.883h1.404v3.318h-2.368c-1.425 0-2.075-.614-2.368-1.31-.88.84-2.263 1.659-4.253 1.659-2.892 0-5.804-1.742-5.804-5.06 0-5.736 7.48-5.756 9.952-5.756-.146-1.7-1.194-2.438-2.996-2.438-2.053 0-3.604 1.168-3.604 1.188l-.733.594-1.802-2.867.524-.451c.083-.062 2.2-1.823 5.762-1.823 4.002 0 6.286 2.294 6.286 6.309v6.637zM43.16 14.38c-4.442 0-6.411.799-6.411 2.581 0 .983.796 1.987 2.556 1.987 2.242 0 3.772-2.315 3.855-4.568zm74.7-7.436c0 4.077-2.934 6.924-7.145 6.924h-3.877v7.845h-3.708V.103h7.585c4.211 0 7.145 2.806 7.145 6.841zm-3.772 0c0-2.15-1.341-3.441-3.604-3.441h-3.646v6.964h3.604c2.284 0 3.646-1.31 3.646-3.523zm20.933 6.74c0 4.69-3.751 8.378-8.528 8.378-4.799 0-8.57-3.688-8.57-8.379 0-4.608 3.75-8.234 8.549-8.234 4.798 0 8.549 3.605 8.549 8.235zm-3.688 0c0-2.725-2.116-4.835-4.819-4.835-2.724 0-4.862 2.13-4.862 4.835 0 2.806 2.138 5.018 4.862 5.018 2.682-.02 4.819-2.212 4.819-5.019zm34.343 1.7v-6.35h3.667V5.777h-3.667V.963l-3.625 2.048v2.745h-1.949v3.257h1.928v6.555c0 5.53 4.149 6.125 5.93 6.125.817 0 1.676-.184 1.676-.184v-3.421s-1.027.245-1.509.245c-1.634 0-2.451-.983-2.451-2.95zM57.494 5.634c-1.446 0-2.85 1.003-3.793 2.519V5.777h-3.625v15.936h3.646v-6.841c0-.922.126-1.783.377-2.56.587-1.926 1.907-3.115 3.437-3.115.44 0 1.55.205 1.55.205V5.88c.021 0-.88-.246-1.592-.246zm38.827.143v1.946c-.86-2.192-4.086-2.192-4.086-2.192-4.359 0-7.166 3.072-7.166 7.948 0 4.793 3.017 8.583 7.354 8.583 1.509 0 2.787-.37 3.793-1.107v.103c0 2.356-1.509 3.667-4.275 3.667-1.886 0-3.52-.881-3.54-.881l-.797-.43-1.467 3.134.713.348a11.691 11.691 0 005.154 1.229c3.793 0 7.858-1.885 7.858-7.129V5.776H96.32zm-3.667 12.74c-2.389 0-3.919-1.884-3.919-4.813 0-2.97 1.3-4.609 3.667-4.609 2.62 0 3.793 1.434 3.793 4.63-.021 3.175-1.215 4.793-3.541 4.793zm48.046-.122h1.404v3.318h-2.451c-1.698 0-2.62-.88-2.62-2.56V7.088l3.667-2.049v13.356zm17.978-6.596c0-4.281-1.885-6.37-5.741-6.37-2.389 0-4.065 1.515-4.966 2.498v-2.15h-3.646v15.936h3.646v-7.251c0-.676.063-1.25.21-1.7.565-2.028 2.43-3.872 4.505-3.872 1.76 0 2.326.84 2.326 3.421v6.842c0 1.68.901 2.56 2.598 2.56h2.43v-3.318h-1.404v-6.596h.042zm-19.717-7.415c1.236 0 2.242-.984 2.242-2.192 0-1.209-1.006-2.192-2.242-2.192s-2.242.983-2.242 2.192a2.247 2.247 0 002.242 2.192zm38.89 15.281c-.063-.45-.231-.717-.503-.758v-.02c.335-.082.629-.349.629-.717 0-.328-.105-.533-.294-.676-.209-.164-.545-.246-1.089-.246a5.82 5.82 0 00-1.027.082v3.134h.67v-1.29h.315c.335 0 .545.143.607.47.063.43.105.697.189.82h.691c-.062-.123-.125-.307-.188-.799zm-1.299-1.086h-.356v-.901c.104-.02.23-.02.398-.02.503 0 .712.204.712.45 0 .348-.335.471-.754.471zm.146-3.01c-1.739 0-3.164 1.454-3.164 3.256 0 1.823 1.383 3.237 3.164 3.237h.042c1.739 0 3.164-1.455 3.164-3.237 0-1.802-1.424-3.257-3.206-3.257zm.042 5.817h-.042c-1.403 0-2.493-1.127-2.493-2.581 0-1.434 1.111-2.581 2.493-2.581 1.404 0 2.536 1.167 2.536 2.58 0 1.434-1.111 2.582-2.494 2.582z"/></svg>
