<svg xmlns="http://www.w3.org/2000/svg" width="91" height="51" fill="none"><defs/><path fill="#1D2F3C" d="M.681 50.973c.39-2.854.746-5.449 1.135-8.043.584-3.957 1.2-7.882 1.816-11.838.357-2.303.584-4.606 1.038-6.876.325-1.557-.13-2.108-1.686-1.914-.292.033-.616-.097-1.038-.162.292-2.27.584-4.443.876-6.616.13-.973.713-1.265 1.589-1.135 1.427.195 1.816-.551 2.043-1.816.39-2.043.746-4.184 1.59-6.065 1.718-3.924 5.253-5.481 9.242-5.773 2.4-.195 4.865.26 7.525.454-.714 2.757-1.265 5.027-1.979 7.265-.097.324-.973.616-1.427.551-3.34-.421-4.378 1.168-4.735 4.087-.13.973.162 1.297 1.07 1.297h3.828c-.325 2.562-.617 4.962-.973 7.33-.033.26-.617.551-.973.616-.584.097-1.2.032-1.784.032-2.53 0-2.53.098-2.887 2.53-1.005 7.103-2.075 14.206-3.146 21.276-.162 1.167-.032 2.66-.713 3.373-.681.68-2.173.648-3.34.778-2.27.227-4.574.39-7.07.649zM39.21 47.289c1.655-11.092 3.276-21.924 4.93-32.854h9.146c.065.973.13 1.881.227 3.114 3.244-2.336 6.455-4.282 10.736-3.536-1.103 3.114-2.14 6.162-3.276 9.146-.13.357-.81.552-1.265.681-1.751.52-3.535.909-5.254 1.46-.973.324-1.524 1.005-1.654 2.14-.681 4.963-1.46 9.892-2.205 14.854-.163 1.07-.325 2.141-.584 3.179-.098.324-.487.81-.811.843-3.276.39-6.486.649-9.99.973zM37.687 14.32c-.195 1.914-.325 3.633-.551 5.287-.974 6.551-1.979 13.102-2.984 19.654-.357 2.465-.681 4.897-1.135 7.362-.098.454-.52 1.2-.876 1.233-3.146.389-6.324.648-9.47.94-.098 0-.195-.097-.357-.195.81-5.48 1.622-10.994 2.432-16.54.746-5.092 1.525-10.216 2.238-15.308.324-2.433.26-2.433 2.724-2.433h7.979zM33.568 11.037c-3.34 0-4.93-1.005-5.222-3.113-.454-3.405 1.103-6.227 3.99-6.746 1.589-.26 3.34-.26 4.897.162 1.978.52 2.627 2.335 2.238 5.092-.325 2.497-2.011 4.249-4.314 4.54-.648.065-1.297.033-1.589.065z"/><path fill="#1D2F3C" fill-rule="evenodd" d="M88.443 35.77c.077-.641.156-1.297.227-1.975l-1.617.297c-2.032.375-3.931.724-5.81 1.033l-.296.044c-2.082.315-4.237.64-6.125-.66-.433-.296-.658-.88-.877-1.448-.092-.242-.184-.48-.29-.693.212-.078.425-.176.64-.275.406-.186.816-.375 1.24-.438 1.173-.171 2.36-.301 3.548-.43 1.966-.216 3.937-.43 5.858-.835 3.308-.714 5.254-3.373 5.546-6.52.519-5.318-1.946-7.718-4.573-8.918-3.47-1.59-7.136-1.362-10.67-.778-4.476.745-7.979 3.146-9.86 7.459-1.849 4.281-2.368 8.854-2.432 13.427-.098 4.865 3.502 8.4 8.367 8.724 4.897.292 9.697-.26 14.432-1.394 1.363-.325 2.238-1.006 2.303-2.595.067-1.33.224-2.644.39-4.025zM78.79 21.199a2.206 2.206 0 00-1.47.077c-1.039.422-2.077 1.33-2.628 2.303-1.07 1.91-.592 2.994 1.504 3.182.254.025.53.038.831.038a15.521 15.521 0 001.687-.454c1.46-.519 2.205-2.01 1.751-3.503-.248-.784-.89-1.424-1.675-1.643z" clip-rule="evenodd"/></svg>