<svg width="183" height="30" viewBox="0 0 183 30" fill="none" xmlns="http://www.w3.org/2000/svg">
<g clip-path="url(#clip0)">
<path d="M62.9397 18.3949H64.3122V21.7134H61.936C60.2563 21.7134 59.3754 20.8326 59.3754 19.1529V7.08758L62.9602 5.03915L62.9397 18.3949ZM80.5153 11.799C80.5153 7.51775 78.6717 5.42835 74.9026 5.42835C72.5878 5.42835 70.9286 6.94419 70.0478 7.92744V5.77658H66.4835V21.7134H70.0478V14.4619C70.0478 13.786 70.1092 13.2124 70.2526 12.7617C70.8057 10.7338 72.6288 8.8902 74.6568 8.8902C76.3774 8.8902 76.9305 9.73006 76.9305 12.3111V19.1529C76.9305 20.8326 77.8113 21.7134 79.4706 21.7134H81.8468V18.3949H80.4743V11.799H80.5153ZM14.5762 15.2813C14.5762 19.1119 11.8518 21.6929 7.79586 21.6929H0.09375V0.102422H7.55005C11.2782 0.102422 13.7773 2.45812 13.7773 5.94046C13.7773 7.66114 13.1628 9.13602 12.0156 10.1807C13.6339 11.2049 14.5762 13.069 14.5762 15.2813ZM3.71948 8.7673H7.52957C9.08638 8.7673 10.0901 7.7226 10.0901 6.08385C10.0901 4.46559 9.12734 3.48234 7.4886 3.48234H3.71948V8.7673ZM10.8685 15.2404C10.8685 13.3353 9.63945 12.1062 7.75489 12.1062H3.71948V18.313H7.79586C9.72139 18.313 10.8685 17.1659 10.8685 15.2404ZM61.26 4.38365C62.4686 4.38365 63.4518 3.4004 63.4518 2.19182C63.4518 0.983248 62.4686 0 61.26 0C60.0514 0 59.0887 0.983248 59.0887 2.19182C59.0682 3.4004 60.0514 4.38365 61.26 4.38365ZM30.6564 14.6668H19.8202C20.1889 17.1249 21.971 18.7022 24.4701 18.7022C26.58 18.7022 28.0139 17.3502 28.1778 17.1864L28.8947 16.4489L30.7588 19.3167L30.2877 19.7879C30.2057 19.8698 27.9729 22.0616 24.4087 22.0616C19.5948 22.0616 16.1125 18.5998 16.1125 13.8064C16.1125 8.93117 19.349 5.53077 23.9785 5.53077C28.6899 5.53077 30.7793 9.23844 30.7793 12.9051C30.7793 13.2739 30.7178 13.9089 30.7178 13.9703L30.6564 14.6668ZM27.0511 11.5122C26.7234 9.77103 25.5763 8.74681 23.9375 8.74681C22.1144 8.74681 20.701 9.77103 20.066 11.5122H27.0511ZM45.1798 18.3949H46.5522V21.7134H44.2375C42.8446 21.7134 42.2096 21.0989 41.9228 20.4024C41.0624 21.2423 39.7105 22.0616 37.7645 22.0616C34.9376 22.0616 32.0903 20.3205 32.0903 17.002C32.0903 11.2664 39.4032 11.2459 41.8204 11.2459C41.677 9.5457 40.6527 8.80827 38.8911 8.80827C36.8836 8.80827 35.3678 9.97587 35.3678 9.99636L34.6508 10.5904L32.8892 7.7226L33.4013 7.27194C33.4832 7.21049 35.5521 5.44883 39.0345 5.44883C42.947 5.44883 45.1798 7.74308 45.1798 11.758V18.3949ZM41.7999 14.38C37.4572 14.38 35.5317 15.1789 35.5317 16.961C35.5317 17.9443 36.3101 18.948 38.0308 18.948C40.2226 18.948 41.7179 16.6333 41.7999 14.38ZM114.827 6.94419C114.827 11.0206 111.959 13.8679 107.841 13.8679H104.052V21.7134H100.426V0.102422H107.841C111.959 0.102422 114.827 2.90878 114.827 6.94419ZM111.139 6.94419C111.139 4.79334 109.828 3.50282 107.616 3.50282H104.052V10.4675H107.575C109.808 10.4675 111.139 9.1565 111.139 6.94419ZM131.603 13.6835C131.603 18.3745 127.937 22.0616 123.266 22.0616C118.575 22.0616 114.888 18.3745 114.888 13.6835C114.888 9.07456 118.555 5.44883 123.246 5.44883C127.937 5.44883 131.603 9.05408 131.603 13.6835ZM127.998 13.6835C127.998 10.9591 125.929 8.84924 123.287 8.84924C120.624 8.84924 118.534 10.9796 118.534 13.6835C118.534 16.4899 120.624 18.7022 123.287 18.7022C125.909 18.6817 127.998 16.4899 127.998 13.6835ZM161.572 15.3837V9.03359H165.157V5.77658H161.572V0.962764L158.028 3.0112V5.7561H156.123V9.01311H158.008V15.5681C158.008 21.0989 162.063 21.6929 163.805 21.6929C164.604 21.6929 165.443 21.5086 165.443 21.5086V18.0877C165.443 18.0877 164.44 18.3335 163.968 18.3335C162.371 18.3335 161.572 17.3502 161.572 15.3837ZM55.8112 5.63319C54.3977 5.63319 53.0253 6.63693 52.1035 8.15277V5.77658H48.5597V21.7134H52.124V14.8716C52.124 13.9498 52.2469 13.0895 52.4927 12.3111C53.0663 10.3856 54.3568 9.19747 55.8521 9.19747C56.2823 9.19747 57.368 9.40231 57.368 9.40231V5.87901C57.3885 5.87901 56.5076 5.63319 55.8112 5.63319ZM93.7686 5.77658V7.7226C92.9288 5.53077 89.7742 5.53077 89.7742 5.53077C85.5135 5.53077 82.7686 8.60342 82.7686 13.4787C82.7686 18.272 85.7183 22.0616 89.9586 22.0616C91.4334 22.0616 92.683 21.6929 93.6662 20.9555V21.0579C93.6662 23.4136 92.1913 24.7246 89.4874 24.7246C87.6438 24.7246 86.0461 23.8438 86.0256 23.8438L85.2472 23.4136L83.8133 26.5477L84.5097 26.8959C86.0665 27.6948 87.8487 28.125 89.5489 28.125C93.2565 28.125 97.2305 26.2404 97.2305 20.9965V5.77658H93.7686ZM90.1839 18.5178C87.8487 18.5178 86.3533 16.6333 86.3533 13.704C86.3533 10.7338 87.6233 9.09505 89.9381 9.09505C92.4986 9.09505 93.6457 10.529 93.6457 13.7245C93.6253 16.8996 92.4576 18.5178 90.1839 18.5178ZM137.154 18.3949H138.527V21.7134H136.13C134.471 21.7134 133.57 20.8326 133.57 19.1529V7.08758L137.154 5.03915V18.3949ZM154.73 11.799C154.73 7.51775 152.886 5.42835 149.117 5.42835C146.782 5.42835 145.143 6.94419 144.263 7.92744V5.77658H140.698V21.7134H144.263V14.4619C144.263 13.786 144.324 13.2124 144.467 12.7617C145.02 10.7338 146.844 8.8902 148.872 8.8902C150.592 8.8902 151.145 9.73006 151.145 12.3111V19.1529C151.145 20.8326 152.026 21.7134 153.685 21.7134H156.062V18.3949H154.689V11.799H154.73ZM135.454 4.38365C136.663 4.38365 137.646 3.4004 137.646 2.19182C137.646 0.983248 136.663 0 135.454 0C134.246 0 133.262 0.983248 133.262 2.19182C133.283 3.4004 134.266 4.38365 135.454 4.38365ZM173.473 19.665C173.412 19.2143 173.248 18.948 172.982 18.907V18.8866C173.309 18.8046 173.596 18.5383 173.596 18.1696C173.596 17.8419 173.494 17.637 173.309 17.4936C173.104 17.3298 172.777 17.2478 172.244 17.2478C171.773 17.2478 171.486 17.2888 171.24 17.3298V20.4639H171.896V19.1733H172.203C172.531 19.1733 172.736 19.3167 172.797 19.6445C172.859 20.0747 172.9 20.341 172.982 20.4639H173.658C173.596 20.341 173.535 20.1566 173.473 19.665ZM172.203 18.5793H171.855V17.678C171.957 17.6575 172.08 17.6575 172.244 17.6575C172.736 17.6575 172.941 17.8623 172.941 18.1082C172.941 18.4564 172.613 18.5793 172.203 18.5793ZM172.347 15.5681C170.646 15.5681 169.253 17.0225 169.253 18.8251C169.253 20.6482 170.605 22.0616 172.347 22.0616H172.388C174.088 22.0616 175.481 20.6072 175.481 18.8251C175.481 17.0225 174.088 15.5681 172.347 15.5681ZM172.388 21.3857H172.347C170.974 21.3857 169.909 20.259 169.909 18.8046C169.909 17.3707 170.995 16.2236 172.347 16.2236C173.719 16.2236 174.825 17.3912 174.825 18.8046C174.825 20.2385 173.74 21.3857 172.388 21.3857Z" fill="#616D77"/>
</g>
<defs>
<clipPath id="clip0">
<rect width="182.812" height="30" fill="white" transform="translate(0.09375)"/>
</clipPath>
</defs>
</svg>
