<svg xmlns="http://www.w3.org/2000/svg" width="242" height="30" fill="none"><defs/><path fill="#1D2F3C" d="M48.517 20.477h.582c-.614 2.101-2.147 3.152-4.601 3.152-1.579 0-2.908-.537-3.985-1.611-1.078-1.072-1.616-2.493-1.616-4.26 0-1.812.58-3.282 1.743-4.41 1.164-1.128 2.54-1.691 4.127-1.691.955 0 1.834.209 2.637.629.804.419 1.205.93 1.205 1.534 0 .227-.075.438-.225.637-.147.198-.361.297-.64.297-.597 0-.962-.346-1.097-1.042-.11-.523-.275-.887-.5-1.095-.235-.207-.691-.31-1.366-.31-1.209 0-2.117.418-2.727 1.257-.608.839-.913 2.101-.913 3.787 0 1.74.328 3.103.983 4.087.655.984 1.646 1.474 2.976 1.474 1.79 0 2.93-.81 3.417-2.435zM57.83 13.93c.542-.758 1.148-1.327 1.82-1.705a4.413 4.413 0 012.21-.568c.913 0 1.668.189 2.266.568.601.378.99.845 1.171 1.4.18.556.27 1.455.27 2.698v3.057c0 1.3.026 2.088.076 2.367.05.28.195.486.44.616.242.131.692.197 1.352.197v.622h-5.722v-.622h.257c.657 0 1.083-.094 1.279-.284.192-.189.306-.413.337-.67.032-.256.047-.999.047-2.226v-3.326c0-.92-.054-1.601-.161-2.043-.108-.441-.365-.809-.764-1.097-.403-.288-.905-.432-1.51-.432-.703 0-1.334.206-1.894.615-.558.41-1.05 1.026-1.474 1.847v4.436c0 1.245.02 2.013.06 2.301.041.29.18.507.414.654.234.152.663.224 1.285.224v.623h-5.627v-.622h.283c.65 0 1.071-.092 1.266-.278.194-.184.307-.405.338-.661.033-.26.047-1.003.047-2.24V8.34c0-1.117-.105-1.825-.318-2.122-.212-.298-.719-.446-1.522-.446V5.15c1.398 0 2.562-.19 3.491-.569h.283v9.348zM80.2 16.418l-1.479.596c-2.333.947-3.5 2.136-3.5 3.571 0 .568.15 1.027.448 1.373.3.348.688.52 1.167.52.424 0 .918-.138 1.48-.418.559-.28 1.189-.7 1.885-1.259v-4.383zm3.916 4.735h.495c-.081 1.541-.838 2.315-2.267 2.315-.611 0-1.094-.164-1.449-.487-.356-.326-.588-.809-.694-1.45-.904.641-1.73 1.124-2.474 1.45-.745.323-1.413.487-2 .487-.75 0-1.396-.218-1.937-.65-.543-.434-.814-1.006-.814-1.719 0-.929.455-1.741 1.362-2.435.908-.696 2.162-1.37 3.762-2.03l2.1-.851v-.541c0-.766-.05-1.322-.149-1.665-.1-.342-.357-.65-.774-.919-.414-.27-.963-.406-1.641-.406-1.357 0-2.111.452-2.266 1.352-.145.92-.524 1.382-1.136 1.382-.55 0-.823-.262-.823-.785 0-.515.363-1.067 1.093-1.66.731-.588 1.868-.884 3.41-.884 1.144 0 2.033.181 2.666.541.63.36 1.047.771 1.25 1.232.202.46.304 1.162.304 2.109v4.477c0 1.047.054 1.72.164 2.018.108.297.342.445.705.445.597 0 .968-.442 1.113-1.326zM93.373 14.483a4.606 4.606 0 011.494-2.014c.69-.543 1.364-.812 2.023-.812.595 0 1.064.184 1.407.554.342.37.514.748.514 1.137a.962.962 0 01-.265.676.842.842 0 01-.643.285c-.45 0-.793-.335-1.028-1.001-.163-.453-.405-.677-.73-.677-.388 0-.852.263-1.393.792-.54.527-.888 1.075-1.042 1.644-.154.567-.23 1.347-.23 2.339v1.974c0 1.182.016 1.927.048 2.233.032.307.16.542.387.704.228.161.631.242 1.212.242h.382v.623h-5.885v-.622h.286c.54 0 .926-.073 1.155-.225a.886.886 0 00.415-.626c.044-.271.066-1.048.066-2.329v-3.124c0-1.19-.015-1.937-.048-2.239a.952.952 0 00-.386-.702c-.224-.17-.625-.252-1.202-.252h-.286v-.607c.844-.1 1.95-.366 3.316-.8.261.713.406 1.656.433 2.827zM104.609 6.003c0-.388.137-.722.413-1.002.274-.278.606-.419.994-.419.387 0 .716.14.988.42.269.279.405.613.405 1 0 .398-.136.735-.405 1.016a1.333 1.333 0 01-.988.418c-.388 0-.72-.14-.994-.418a1.392 1.392 0 01-.413-1.015zm2.61 5.654v7.723c0 1.182.019 1.927.054 2.233.037.307.167.542.393.704.226.161.627.242 1.204.242h.283v.623h-5.965v-.622h.46c.641 0 1.059-.092 1.252-.278.194-.184.306-.405.338-.661.031-.26.048-1.003.048-2.24v-3.355c0-1.298-.061-2.092-.183-2.38-.123-.29-.284-.47-.487-.542-.203-.072-.556-.108-1.062-.108h-.366v-.622c1.605-.163 2.851-.402 3.734-.717h.297zM121.163 12.712h-3.342v6.696c0 1.03.045 1.72.136 2.077.09.355.282.643.574.86.294.215.607.323.94.323.651 0 1.214-.37 1.692-1.109l.432.26a2.906 2.906 0 01-1.238 1.343c-.546.301-1.097.453-1.656.453-.65 0-1.22-.191-1.712-.575-.49-.383-.798-.83-.92-1.346-.12-.514-.182-1.416-.182-2.706v-6.276h-1.604v-.615c.738-.017 1.4-.329 1.985-.933.586-.604.959-1.453 1.119-2.544h.434v3.47h3.342v.622zM132.692 21.085l2.584-6.151c.37-.903.553-1.405.553-1.504 0-.451-.503-.686-1.508-.705v-.622h3.896v.622c-.604.027-1.046.186-1.326.48s-.626.941-1.042 1.942L130.9 27.06c-.468 1.138-.883 1.913-1.243 2.323-.362.41-.76.617-1.193.617-.587 0-.879-.268-.879-.8 0-.615.467-1.136 1.404-1.56.549-.245.915-.452 1.1-.624.184-.17.368-.484.547-.932l1.061-2.632-4.154-8.927c-.368-.785-.676-1.28-.92-1.488-.243-.208-.657-.312-1.243-.312v-.622h5.086v.622c-.894.027-1.339.214-1.339.556 0 .135.176.577.528 1.325l3.037 6.48zM144.136 22.168c0-.396.143-.737.428-1.023a1.395 1.395 0 011.021-.425c.406 0 .751.143 1.034.425.285.286.428.627.428 1.023 0 .405-.145.75-.433 1.033a1.411 1.411 0 01-1.029.428c-.406 0-.749-.147-1.028-.44a1.44 1.44 0 01-.421-1.021zm0-9.375c0-.388.139-.728.414-1.02a1.36 1.36 0 011.035-.441c.406 0 .751.143 1.034.425.285.286.428.631.428 1.036 0 .396-.145.738-.433 1.022a1.423 1.423 0 01-1.029.426c-.406 0-.749-.145-1.028-.435a1.412 1.412 0 01-.421-1.013zM177.016 23.63h-.618l-3.301-8.794-3.377 8.793h-.567l-3.406-8.803c-.389-1.003-.677-1.605-.866-1.801-.192-.2-.569-.3-1.138-.3v-.622h5.06v.622c-.57 0-.961.053-1.168.156-.208.105-.313.284-.313.537 0 .181.177.71.531 1.587l2.255 5.944 3.436-8.846h.524l3.331 8.846 2.441-6.3c.261-.668.393-1.069.393-1.206 0-.442-.456-.681-1.367-.718v-.622h3.598v.622c-.432.01-.774.093-1.02.25-.25.158-.477.514-.685 1.063l-.296.788-3.447 8.803zM194.637 16.418l-1.48.596c-2.331.947-3.499 2.136-3.499 3.571 0 .568.148 1.027.447 1.373.3.348.688.52 1.166.52.426 0 .92-.138 1.481-.418.558-.28 1.186-.7 1.885-1.259v-4.383zm3.913 4.735h.497c-.084 1.541-.836 2.315-2.265 2.315-.613 0-1.096-.164-1.452-.487-.356-.326-.585-.809-.693-1.45-.903.641-1.729 1.124-2.474 1.45-.747.323-1.413.487-2.001.487-.749 0-1.394-.218-1.936-.65-.543-.434-.815-1.006-.815-1.719 0-.929.456-1.741 1.362-2.435.909-.696 2.164-1.37 3.763-2.03l2.101-.851v-.541c0-.766-.051-1.322-.151-1.665-.1-.342-.356-.65-.771-.919-.419-.27-.963-.406-1.643-.406-1.357 0-2.112.452-2.266 1.352-.142.92-.523 1.382-1.136 1.382-.549 0-.825-.262-.825-.785 0-.515.364-1.067 1.095-1.66.732-.588 1.867-.884 3.41-.884 1.146 0 2.034.181 2.665.541.631.36 1.049.771 1.251 1.232.203.46.305 1.162.305 2.109v4.477c0 1.047.054 1.72.162 2.018.108.297.345.445.706.445.597 0 .969-.442 1.111-1.326zM210.539 12.712h-3.341v6.696c0 1.03.046 1.72.135 2.077.091.355.283.643.574.86.294.215.607.323.942.323.65 0 1.213-.37 1.69-1.109l.435.26a2.921 2.921 0 01-1.238 1.343c-.547.301-1.098.453-1.659.453a2.7 2.7 0 01-1.71-.575c-.49-.383-.798-.83-.92-1.346-.121-.514-.183-1.416-.183-2.706v-6.276h-1.602v-.615c.737-.017 1.399-.329 1.985-.933.586-.604.957-1.453 1.119-2.544h.432v3.47h3.341v.622zM223.589 15.31c.027-.209.043-.393.043-.556 0-.794-.234-1.409-.701-1.845-.464-.439-1.036-.657-1.716-.657-1.645 0-2.624 1.02-2.942 3.057h5.316zm2.368.555h-7.739c-.034.53-.053.925-.053 1.187 0 1.944.304 3.405.915 4.383.609.976 1.52 1.464 2.732 1.464 1.645 0 2.813-.736 3.501-2.206h.644c-.29.92-.863 1.64-1.721 2.157a5.31 5.31 0 01-2.805.78 5.32 5.32 0 01-2.659-.712 5.664 5.664 0 01-2.053-2.01c-.534-.865-.799-1.915-.799-3.15 0-1.75.513-3.204 1.543-4.363 1.031-1.16 2.317-1.738 3.86-1.738 1.454 0 2.579.444 3.374 1.33.794.887 1.214 1.845 1.26 2.878zM235.489 14.483a4.606 4.606 0 011.495-2.014c.689-.543 1.363-.812 2.022-.812.596 0 1.066.184 1.407.554.344.37.514.748.514 1.137 0 .262-.09.486-.262.676a.846.846 0 01-.645.285c-.451 0-.792-.335-1.027-1.001-.163-.453-.405-.677-.731-.677-.386 0-.852.263-1.392.792-.543.527-.887 1.075-1.041 1.644-.153.567-.231 1.347-.231 2.339v1.974c0 1.182.015 1.927.048 2.233.032.307.162.542.387.704.227.161.63.242 1.213.242h.38v.623h-5.883v-.622h.282c.542 0 .928-.073 1.157-.225a.9.9 0 00.415-.626c.046-.271.066-1.048.066-2.329v-3.124c0-1.19-.017-1.937-.049-2.239a.945.945 0 00-.382-.702c-.227-.17-.628-.252-1.207-.252h-.282v-.607c.844-.1 1.947-.366 3.314-.8.262.713.405 1.656.432 2.827zM16.285 19.698s1.916 3.34 2.318 4.105c.53 1.014-.195 1.448-.195 1.448s-.965.484-1.447-.385c-.41-.74-1.746-3.091-2.22-3.816-.612-.934-.87-1.256-1.69-1.256H9.012c-.827 0-1.088.322-1.704 1.256-.478.725-1.825 3.077-2.238 3.816-.487.87-1.46.385-1.46.385s-.729-.434-.194-1.448c.404-.766 2.336-4.105 2.336-4.105s.485-.74.485-1.352v-1.708-2.024c0-.61-.485-1.349-.485-1.349S3.82 9.934 3.416 9.171c-.535-1.013.194-1.446.194-1.446s.973-.482 1.46.386c.413.736 1.76 3.082 2.238 3.805.616.932.877 1.252 1.704 1.252h4.039c.82 0 1.078-.32 1.69-1.252.474-.723 1.81-3.069 2.22-3.806.482-.867 1.447-.385 1.447-.385s.725.433.195 1.446c-.402.763-2.318 4.094-2.318 4.094s-.483.739-.483 1.35v3.731c0 .612.483 1.352.483 1.352zM9.027 2.056h5.728a.884.884 0 110 1.766H9.027a.883.883 0 110-1.766zM21.37 3.919c-.144-.29-1.077-2.136-1.077-2.136s.355-.21.516-.29c.16-.08.281-.18.062-.593-.234-.445-.466-.316-.466-.316s-.313.173-.66.348C19.165.08 18.36-.002 18.118 0h-1.19c-.242 0-.466.032-.564.16-.095.13-.32.242-.595.242H7.612c-.08.007-.097-.049-.146-.08-.547-.305-1.15-.008-1.28.136-.127.145-.643.77-.948 1.116-.306.345-.572.41-.78.474.128-.17.031-.33.031-.33l-.12-.24.169-.457.153-.081L4.6.73s-.096.042-.274.13c-.175.088-.175.168-.175.168-.08.289-.29.305-.29.305S3.395.45 3.331.337c-.065-.113-.193-.465-1.753.37C.016 1.542.386 1.863.386 1.863L.917 2.89l-.161.129.388.771s-.098.048-.437.273C.371 4.288 0 4.513 0 5.123v22.42C0 29.229.484 30 2.366 30H19.55c1.11 0 2.173-.58 2.173-2.505V5.33c0-1.107-.21-1.124-.355-1.412zm-7.886 10.792H8.659a.772.772 0 00-.773.77v2.088c0 .427.346.772.773.772h4.825a.772.772 0 00.774-.772v-2.087a.771.771 0 00-.774-.771z"/></svg>