<svg width="141" height="30" viewBox="0 0 141 30" fill="none" xmlns="http://www.w3.org/2000/svg">
<path d="M137.911 29.4919C139.404 29.4919 140.618 28.2777 140.618 26.7847C140.618 25.2917 139.404 24.0774 137.911 24.0774C136.418 24.0774 135.204 25.2917 135.204 26.7847C135.204 28.2777 136.418 29.4919 137.911 29.4919ZM137.911 24.7389C139.045 24.7389 139.957 25.6508 139.957 26.7847C139.957 27.9186 139.045 28.8305 137.911 28.8305C136.777 28.8305 135.865 27.9186 135.865 26.7847C135.865 25.6508 136.777 24.7389 137.911 24.7389ZM137.155 28.3013C137.41 28.3013 137.486 28.1548 137.486 27.947V27.0776H137.708L138.171 27.947C138.266 28.1218 138.341 28.3013 138.577 28.3013C138.823 28.3013 138.922 28.2068 138.922 28.0415C138.922 27.9989 138.908 27.947 138.88 27.8855L138.355 27.0304C138.828 27.0115 139.092 26.7422 139.092 26.2224C139.092 25.5374 138.592 25.3626 137.996 25.3626H137.165C136.886 25.3626 136.825 25.5043 136.825 25.6697V27.9422C136.82 28.1832 136.895 28.3013 137.155 28.3013ZM137.486 25.8964H138.039C138.284 25.8964 138.431 25.9626 138.431 26.2272C138.431 26.4918 138.284 26.5532 138.039 26.5532H137.486V25.8964ZM11.346 8.91115C9.47497 8.91115 7.64179 9.54899 6.21965 10.7821V3.44468C6.21965 1.64929 5.09518 0.449219 3.52658 0.449219C1.95325 0.449219 0.833496 1.64457 0.833496 3.44468V26.5012C0.833496 28.2966 1.95797 29.4967 3.52658 29.4967C5.02431 29.4967 5.8842 28.6746 6.21965 27.2524C7.23074 28.8966 9.32378 29.7234 11.1617 29.7234C16.5904 29.7234 20.03 24.6727 20.03 19.5795C20.03 14.3351 17.1479 8.91115 11.346 8.91115ZM10.4483 24.7767C7.4906 24.7767 6.21965 21.7812 6.21965 19.1637C6.21965 16.5415 7.56619 13.8485 10.4483 13.8485C13.2547 13.8485 14.6391 16.8061 14.6391 19.348C14.6391 21.8568 13.2547 24.7767 10.4483 24.7767ZM23.8097 0.449219C22.2364 0.449219 21.1166 1.64457 21.1166 3.44468V26.5012C21.1166 28.2966 22.2411 29.4967 23.8097 29.4967C25.383 29.4967 26.5028 28.2966 26.5028 26.5012V3.44468C26.5028 1.64929 25.383 0.449219 23.8097 0.449219ZM43.044 9.13321C41.4706 9.13321 40.3509 10.3286 40.3509 12.1287V21.7482C40.3509 23.9924 38.6689 25.2303 36.8688 25.2303C35.0687 25.2303 33.3867 23.9971 33.3867 21.7482V12.1287C33.3867 10.3333 32.2622 9.13321 30.6936 9.13321C29.1203 9.13321 28.0005 10.3286 28.0005 12.1287V21.8615C28.0005 26.6524 31.1802 29.7187 36.8688 29.7187C42.5573 29.7187 45.737 26.6477 45.737 21.8615V12.1287C45.737 10.3286 44.6173 9.13321 43.044 9.13321ZM66.1525 18.7149C66.1525 14.2217 62.2971 8.91115 56.4574 8.91115C50.7688 8.91115 46.8001 13.8863 46.8001 19.3527C46.8001 25.3059 50.8397 29.7187 56.9062 29.7187C60.9128 29.7187 65.6989 27.4745 65.6989 25.1547C65.6989 23.9924 64.65 22.8348 63.4925 22.8348C62.0703 22.8348 60.1616 25.0035 57.3929 25.0035C54.8841 25.0035 52.6776 23.7703 52.3044 21.1103H63.7949C65.4438 21.1103 66.1525 20.326 66.1525 18.7149ZM52.1957 17.5148C52.4556 15.2328 54.0667 13.3996 56.4621 13.3996C58.9709 13.3996 60.4687 15.1572 60.7663 17.5148H52.1957ZM68.9212 26.4965C68.9212 28.2919 70.0456 29.4919 71.6142 29.4919C73.1876 29.4919 74.3073 28.2919 74.3073 26.4965V14.0705H75.9893C77.5626 14.0705 78.7202 13.3949 78.7202 11.7129C78.7202 9.99311 77.5957 9.35528 75.9893 9.35528H74.3073V7.14884C74.3073 5.16447 75.205 5.16447 76.1027 5.16447C77.6004 5.16447 78.3091 4.45576 78.3091 2.88244C78.3091 1.01146 76.476 0.449219 74.5672 0.449219C71.2741 0.449219 68.9164 2.61786 68.9164 6.5866V9.35528H67.7164C66.3698 9.35528 65.3587 10.3664 65.3587 11.7129C65.3587 13.1728 66.2564 14.0705 67.7164 14.0705H68.9164V26.4965H68.9212ZM86.5112 29.7187C88.5712 29.7187 90.2532 28.8588 91.6375 27.2099C92.0108 28.632 92.6486 29.4919 94.2219 29.4919C96.8016 29.4919 96.8016 27.3564 96.8016 25.972V12.6484C96.8016 11.2641 96.8016 9.13321 94.2219 9.13321C92.9132 9.13321 91.7887 10.0687 91.6375 11.3774C90.4422 9.69073 88.4956 8.90643 86.5112 8.90643C81.5692 8.90643 77.6051 13.4327 77.6051 19.348C77.6051 25.4145 81.4605 29.7187 86.5112 29.7187ZM87.2624 13.8485C90.1067 13.8485 91.4155 16.7683 91.4155 19.348C91.4155 21.9324 90.0689 24.7767 87.2624 24.7767C84.3426 24.7767 82.996 21.9324 82.996 19.348C82.996 16.7683 84.3048 13.8485 87.2624 13.8485ZM107.994 29.7187C109.941 29.7187 114.581 28.7832 114.581 26.0146C114.581 24.7436 113.532 23.6569 112.261 23.6569C111.623 23.6569 109.606 24.7814 108.254 24.7814C105.334 24.7814 103.728 22.0127 103.728 19.3527C103.728 16.5841 105.188 13.8532 108.254 13.8532C109.974 13.8532 111.174 14.9021 112.521 14.9021C113.792 14.9021 114.581 13.4421 114.581 12.3177C114.581 9.69545 110.125 8.91115 107.994 8.91115C102.306 8.91115 98.3371 13.8863 98.3371 19.3527C98.3371 24.9657 102.192 29.7187 107.994 29.7187ZM125.022 29.7187C129.024 29.7187 133.815 27.4745 133.815 25.1547C133.815 23.9924 132.766 22.8348 131.608 22.8348C130.186 22.8348 128.278 25.0035 125.509 25.0035C123 25.0035 120.794 23.7703 120.42 21.1103H131.911C133.56 21.1103 134.268 20.326 134.268 18.7149C134.268 14.2217 130.413 8.91115 124.573 8.91115C118.885 8.91115 114.916 13.8863 114.916 19.3527C114.916 25.3011 118.96 29.7187 125.022 29.7187ZM124.573 13.3996C127.082 13.3996 128.58 15.1572 128.878 17.5148H120.307C120.567 15.2328 122.178 13.3996 124.573 13.3996Z" fill="#616D77"/>
</svg>
