<svg width="126" height="40" viewBox="0 0 126 40" fill="none" xmlns="http://www.w3.org/2000/svg">
<path fill-rule="evenodd" clip-rule="evenodd" d="M27.8113 17.2441C30.1135 17.2441 31.2867 18.4394 31.9286 19.9889L29.7814 20.808C29.5158 19.7454 28.8296 19.1035 27.7006 19.1035C26.0404 19.1035 25.3099 20.7194 25.3099 22.4682C25.3099 24.1948 25.9962 25.8107 27.7228 25.8107C28.896 25.8107 29.4273 25.1245 29.7814 24.2169L31.9729 25.0581C31.176 26.5191 30.0028 27.6923 27.767 27.6923C24.7787 27.6923 22.875 25.6115 22.875 22.4682C22.8528 19.347 24.7565 17.2441 27.8113 17.2441ZM41.912 27.4267H39.6542V25.9436C39.0565 26.9618 38.1046 27.6923 36.5772 27.6923C34.6957 27.6923 33.124 26.5855 33.124 24.3719V17.5097H35.4926V23.7963C35.4926 25.2131 36.378 25.7665 37.2856 25.7665C38.4367 25.7665 39.5435 24.7482 39.5435 22.7781V17.5318H41.912V27.4267ZM66.5496 25.2573C65.7748 26.7405 64.4024 27.7144 62.3216 27.7144C59.2889 27.7144 57.4073 25.6115 57.4073 22.4682C57.4073 19.347 59.3332 17.2662 62.233 17.2662C65.4206 17.2662 66.9037 19.679 66.9037 22.3796V23.0437H59.8202C59.8866 24.5268 60.5285 25.9436 62.2994 25.9436C63.5169 25.9436 64.0924 25.3237 64.4909 24.4604L66.5496 25.2573ZM59.8644 21.4499H64.513C64.4466 19.8783 63.539 18.9707 62.2109 18.9707C60.8163 18.9707 59.9973 20.0111 59.8644 21.4499ZM68.3426 17.5097H70.6226V19.0149C71.1982 17.9967 72.1943 17.2441 73.7438 17.2441C75.6696 17.2441 77.2635 18.3509 77.2635 20.5866V27.4267H74.8727V21.14C74.8727 19.7233 73.943 19.1699 73.0355 19.1699C71.8401 19.1699 70.7333 20.1882 70.7333 22.1583V27.4045H68.3426V17.5097ZM83.5059 17.2441C85.808 17.2441 86.9812 18.4394 87.6232 19.9889L85.476 20.808C85.2103 19.7454 84.5241 19.1035 83.3952 19.1035C81.735 19.1035 81.0045 20.7194 81.0045 22.4682C81.0045 24.1948 81.6907 25.8107 83.4173 25.8107C84.5905 25.8107 85.1218 25.1245 85.476 24.2169L87.6674 25.0581C86.8705 26.5191 85.6973 27.6923 83.4616 27.6923C80.4732 27.6923 78.5695 25.6115 78.5695 22.4682C78.5473 19.347 80.4289 17.2441 83.5059 17.2441ZM103.318 14.7869C103.938 14.7869 104.447 15.0747 104.734 15.3625L105.465 13.3924C104.889 13.0382 103.96 12.839 103.074 12.839C101.37 12.839 99.5324 13.7687 99.5324 16.5357V17.5318H95.4815C95.4815 17.5318 93.2679 23.575 92.9137 24.7703H92.8916C92.4931 23.575 90.2795 17.5318 90.2795 17.5318H87.8445L91.7405 27.4709L90.1024 31.6325H92.4267L97.0974 19.2806H99.5546V27.4488H101.923V19.2806H103.716L104.38 17.5318H101.923V16.5136C101.923 15.2739 102.499 14.7869 103.318 14.7869ZM111.087 26.1428C110.446 27.0725 109.494 27.6923 107.922 27.6923C105.93 27.6923 104.602 26.6076 104.602 24.8589C104.602 22.2025 107.656 21.4056 111.043 21.4056V20.7858C111.043 19.7454 110.468 19.0149 109.228 19.0149C107.966 19.0149 107.369 19.7233 107.346 20.5645L105.044 20.2324C105.244 18.2844 107.125 17.2441 109.317 17.2441C111.707 17.2441 113.368 18.4615 113.368 20.8522V26.0764C113.368 26.674 113.478 27.0504 113.589 27.4267H111.287C111.198 27.2496 111.087 26.6962 111.087 26.1428ZM111.043 23.7742V22.9552C108.586 22.9552 106.948 23.42 106.948 24.7261C106.948 25.523 107.634 25.9436 108.586 25.9436C109.826 25.9436 111.043 25.1467 111.043 23.7742ZM115.183 17.5097H117.573V27.4267H115.183V17.5097ZM125.033 19.4798C124.768 19.347 124.458 19.2806 124.17 19.2806C123.019 19.2806 121.757 20.2767 121.757 22.4239V27.4267H119.366V17.5097H121.602V19.1256C122.156 17.8639 123.174 17.2441 124.524 17.2441C124.923 17.2441 125.387 17.3105 125.786 17.4654L125.033 19.4798ZM49.3941 19.4798C49.1284 19.347 48.8185 19.2806 48.5307 19.2806C47.3797 19.2806 46.1179 20.2767 46.1179 22.4239V27.4267H43.7272V17.5097H45.963V19.1256C46.5164 17.8639 47.5346 17.2441 48.8849 17.2441C49.2834 17.2441 49.7482 17.3105 50.1467 17.4654L49.3941 19.4798ZM56.7211 19.4798C56.4555 19.347 56.1456 19.2806 55.8578 19.2806C54.7067 19.2806 53.445 20.2767 53.445 22.4239V27.4267H51.0543V17.5097H53.29V19.1256C53.8434 17.8639 54.8617 17.2441 56.212 17.2441C56.6104 17.2441 57.0753 17.3105 57.4737 17.4654L56.7211 19.4798Z" fill="#616D77"/>
<path d="M117.696 14.7367C118.117 14.0062 117.867 13.0721 117.137 12.6503C116.406 12.2285 115.472 12.4788 115.05 13.2093C114.628 13.9398 114.879 14.874 115.609 15.2958C116.34 15.7176 117.274 15.4673 117.696 14.7367Z" fill="#616D77"/>
<path d="M7.60103 40C11.6232 40 14.8838 36.7394 14.8838 32.7172C14.8838 28.695 11.6232 25.4344 7.60103 25.4344C3.57885 25.4344 0.318237 28.695 0.318237 32.7172C0.318237 36.7394 3.57885 40 7.60103 40Z" fill="#616D77"/>
<path d="M17.8943 10.9353C20.914 10.9353 23.362 8.48731 23.362 5.46763C23.362 2.44794 20.914 0 17.8943 0C14.8746 0 12.4267 2.44794 12.4267 5.46763C12.4267 8.48731 14.8746 10.9353 17.8943 10.9353Z" fill="#616D77"/>
<path d="M12.1168 24.4383C14.134 24.4383 15.7693 22.803 15.7693 20.7858C15.7693 18.7686 14.134 17.1334 12.1168 17.1334C10.0996 17.1334 8.46434 18.7686 8.46434 20.7858C8.46434 22.803 10.0996 24.4383 12.1168 24.4383Z" fill="#616D77"/>
<path d="M14.6846 15.7831C15.6871 15.7831 16.4998 14.9704 16.4998 13.9679C16.4998 12.9654 15.6871 12.1527 14.6846 12.1527C13.6821 12.1527 12.8694 12.9654 12.8694 13.9679C12.8694 14.9704 13.6821 15.7831 14.6846 15.7831Z" fill="#616D77"/>
</svg>
