<svg width="71" height="40" viewBox="0 0 71 40" fill="none" xmlns="http://www.w3.org/2000/svg">
<path d="M0.348022 39.9788C0.653269 37.7403 0.933078 35.7053 1.23832 33.6703C1.69619 30.567 2.1795 27.4891 2.66281 24.3858C2.94262 22.5797 3.12067 20.7737 3.47679 18.9931C3.73117 17.7721 3.37505 17.3397 2.15406 17.4923C1.92513 17.5177 1.67075 17.416 1.34007 17.3651C1.56901 15.5845 1.79794 13.8802 2.02688 12.1759C2.12863 11.4128 2.5865 11.1838 3.2733 11.2856C4.39254 11.4382 4.69778 10.8532 4.87584 9.86111C5.18109 8.25857 5.46089 6.57971 6.12226 5.10436C7.47043 2.02646 10.2431 0.80547 13.3719 0.576536C15.2542 0.423913 17.1874 0.780033 19.2733 0.932656C18.7137 3.09482 18.2812 4.87542 17.7216 6.63059C17.6453 6.88496 16.9585 7.1139 16.6024 7.06302C13.9824 6.73234 13.1684 7.97876 12.8886 10.2681C12.7868 11.0312 13.0157 11.2856 13.728 11.2856C14.6946 11.2856 15.6612 11.2856 16.7296 11.2856C16.4752 13.2951 16.2463 15.1775 15.9665 17.0344C15.941 17.2379 15.4832 17.4668 15.2033 17.5177C14.7455 17.594 14.2622 17.5431 13.8043 17.5431C11.8202 17.5431 11.8202 17.6195 11.5404 19.5273C10.7518 25.098 9.91241 30.6687 9.07298 36.2141C8.94579 37.1298 9.04754 38.2999 8.51336 38.8595C7.97918 39.3937 6.80907 39.3683 5.89333 39.47C4.11272 39.6481 2.30669 39.7753 0.348022 39.9788Z" fill="#616D77"/>
<path d="M30.5674 37.0895C31.8647 28.39 33.1365 19.894 34.4338 11.3216C36.8504 11.3216 39.1651 11.3216 41.6071 11.3216C41.658 12.0847 41.7089 12.797 41.7852 13.7636C44.3289 11.9321 46.8472 10.4059 50.2049 10.9909C49.34 13.4329 48.526 15.824 47.6357 18.1642C47.534 18.444 46.9998 18.5967 46.6437 18.6984C45.2701 19.1054 43.871 19.4107 42.5229 19.8431C41.7597 20.0975 41.3273 20.6316 41.2256 21.5219C40.6914 25.4138 40.0809 29.2803 39.4958 33.1722C39.3686 34.0116 39.2415 34.851 39.038 35.665C38.9617 35.9194 38.6564 36.301 38.402 36.3264C35.8329 36.6317 33.3146 36.8352 30.5674 37.0895Z" fill="#616D77"/>
<path d="M29.3721 11.2317C29.2195 12.7325 29.1177 14.0807 28.9396 15.378C28.1765 20.5163 27.388 25.6546 26.5994 30.7929C26.3196 32.7262 26.0652 34.634 25.7091 36.5672C25.6328 36.9233 25.3021 37.5084 25.0223 37.5338C22.5549 37.839 20.0621 38.0425 17.5947 38.2715C17.5183 38.2715 17.442 38.1952 17.3148 38.1189C17.9508 33.82 18.5867 29.4956 19.2226 25.1459C19.8077 21.1522 20.4182 17.1331 20.9778 13.1395C21.2322 11.2317 21.1813 11.2317 23.1145 11.2317C25.1495 11.2317 27.159 11.2317 29.3721 11.2317Z" fill="#616D77"/>
<path d="M26.1416 8.65691C23.5216 8.65691 22.2752 7.86836 22.0462 6.21494C21.6901 3.54403 22.9111 1.33099 25.175 0.923996C26.4214 0.720498 27.795 0.720498 29.016 1.05118C30.5677 1.45818 31.0764 2.88266 30.7712 5.04482C30.5168 7.00349 29.1941 8.3771 27.388 8.60603C26.8793 8.65691 26.3705 8.63147 26.1416 8.65691Z" fill="#616D77"/>
<path fill-rule="evenodd" clip-rule="evenodd" d="M69.1811 28.0546C69.2413 27.552 69.3028 27.038 69.3592 26.5061C68.9283 26.585 68.506 26.6627 68.0908 26.7391C66.4966 27.0327 65.0073 27.3069 63.5341 27.549C63.4568 27.5606 63.3794 27.5723 63.3019 27.584C61.6688 27.8305 59.9789 28.0857 58.4975 27.0657C58.1583 26.8336 57.982 26.376 57.8102 25.9302C57.7373 25.7409 57.6652 25.5537 57.5818 25.3869C57.7489 25.3253 57.916 25.2485 58.0842 25.1713C58.4024 25.0251 58.7243 24.8772 59.0571 24.8273C59.9769 24.6931 60.9075 24.5915 61.8394 24.4897C63.3817 24.3212 64.9276 24.1523 66.4339 23.8352C69.0285 23.2756 70.5548 21.1897 70.7837 18.7223C71.1907 14.5506 69.2575 12.6683 67.1971 11.7271C64.4753 10.4807 61.6009 10.6587 58.8282 11.1166C55.3179 11.7017 52.5707 13.584 51.0953 16.9672C49.6454 20.3249 49.2384 23.9115 49.1875 27.4982C49.1112 31.3138 51.9347 34.0864 55.7503 34.3408C59.5913 34.5697 63.356 34.1373 67.0699 33.247C68.1382 32.9926 68.825 32.4584 68.8759 31.212C68.928 30.1693 69.0514 29.1385 69.1811 28.0546ZM61.61 16.6264C61.2517 16.5205 60.8539 16.5264 60.4562 16.6874C59.6422 17.018 58.8282 17.7303 58.3958 18.4934C57.556 19.9913 57.9313 20.8412 59.5756 20.989C59.7743 21.009 59.9916 21.019 60.2274 21.019C60.4818 20.9682 61.016 20.841 61.5502 20.6629C62.6948 20.2559 63.2799 19.0858 62.9238 17.9157C62.7295 17.3004 62.2259 16.7985 61.61 16.6264Z" fill="#616D77"/>
</svg>
