<svg width="129" height="40" viewBox="0 0 129 40" fill="none" xmlns="http://www.w3.org/2000/svg">
<path d="M78.1959 39.9072C77.7037 39.6013 77.1051 39.588 76.6395 39.2155C75.7615 38.5371 75.2693 37.6724 75.256 36.555C75.2427 34.267 75.256 31.9923 75.2427 29.7043C75.2427 29.3318 75.3891 29.1589 75.7349 29.1589C76.4932 29.1455 77.2381 29.1589 77.9963 29.1589C78.4619 29.1589 78.5151 29.4515 78.5151 29.824C78.5018 31.5267 78.5151 33.2427 78.5018 34.9454C78.5018 35.3711 78.5018 35.7835 78.6083 36.1958C78.8078 36.994 79.2734 37.433 79.9917 37.4862C80.6834 37.5261 81.4151 37.0738 81.6545 36.3954C81.8274 35.9165 81.9073 35.411 81.9073 34.8922C81.894 33.1363 81.894 31.3937 81.8673 29.6377C81.8673 29.3185 82.0004 29.1589 82.2797 29.1589C83.1045 29.1455 83.9159 29.1455 84.7407 29.1589C85.0333 29.1589 85.1664 29.3185 85.1664 29.6244C85.1531 32.7771 85.1531 35.9165 85.1531 39.0692C85.1531 39.415 84.9934 39.5481 84.6742 39.5481C83.9824 39.5481 83.304 39.5481 82.6123 39.5481C82.3063 39.5481 82.1068 39.4283 82.0669 39.0958C82.0137 38.7765 81.7476 38.7233 81.588 38.9095C81.0559 39.4816 80.311 39.5747 79.6724 39.9072C79.167 39.9072 78.6881 39.9072 78.1959 39.9072Z" fill="#616D77"/>
<path d="M90.8332 39.9072C90.4075 39.588 89.8754 39.6545 89.4098 39.4549C87.0553 38.4706 86.2039 35.9963 86.4833 33.7615C86.736 31.7794 87.6007 30.1698 89.5296 29.3584C91.1525 28.6667 92.8552 28.6268 94.5047 29.2786C96.0345 29.8772 96.806 31.1276 97.1386 32.684C97.2184 33.0299 97.0854 33.2028 96.7395 33.2028C95.9679 33.2161 95.1831 33.2028 94.4116 33.2028C94.0657 33.2028 93.9327 32.99 93.8263 32.684C93.507 31.7395 92.9616 31.3005 92.1235 31.2872C91.1392 31.2739 90.5272 31.6863 90.1681 32.6441C89.7424 33.7482 89.769 34.8523 90.1149 35.9564C90.3942 36.8477 91.0194 37.3665 91.9373 37.4596C92.8685 37.5527 93.507 37.1403 93.8263 36.2358C93.9327 35.9431 94.1455 35.85 94.4515 35.85C95.1565 35.8633 95.8748 35.85 96.5799 35.8633C97.1652 35.8766 97.2583 36.0495 97.0854 36.6082C96.54 38.3508 95.4092 39.415 93.5735 39.6811C93.4139 39.7077 93.2143 39.7077 93.1079 39.8806C92.3364 39.9072 91.5914 39.9072 90.8332 39.9072Z" fill="#616D77"/>
<path d="M83.4902 14.6592C83.4902 15.8165 83.477 16.9605 83.5036 18.1178C83.5169 18.5435 83.3439 18.743 82.9315 18.743C82.2398 18.743 81.5614 18.7297 80.8697 18.743C80.3642 18.7563 80.1513 18.5435 80.1646 18.0247C80.1779 16.3885 80.1912 14.739 80.1646 13.1028C80.1513 12.4909 80.1779 11.8657 79.8454 11.307C79.5261 10.7749 79.0605 10.562 78.4486 10.6285C77.8766 10.6817 77.4376 10.9611 77.1982 11.4799C77.012 11.879 76.8922 12.2913 76.9055 12.7569C76.9321 14.4863 76.8922 16.2156 76.9188 17.9449C76.9322 18.5701 76.6794 18.7696 76.0941 18.743C75.4556 18.7164 74.8038 18.743 74.1652 18.7297C73.6863 18.7297 73.5001 18.5435 73.5134 17.9981C73.5666 15.3775 73.54 12.7702 73.54 10.1497C73.54 8.35382 73.5267 6.55799 73.5001 4.77546C73.5001 4.36309 73.6997 4.23006 74.0721 4.24337C74.8038 4.25667 75.5354 4.26997 76.267 4.24337C76.7725 4.23006 76.9188 4.46951 76.9188 4.93509C76.9055 6.13231 76.9188 7.32953 76.9055 8.52675C76.9055 8.69969 76.8124 8.89922 77.0253 8.99234C77.2248 9.08546 77.3445 8.89922 77.4775 8.7795C78.7413 7.76851 80.138 7.74191 81.5348 8.36712C82.9049 8.96573 83.5169 10.123 83.5036 11.6129C83.4903 12.6372 83.5036 13.6482 83.5036 14.6725C83.477 14.6592 83.477 14.6592 83.4902 14.6592Z" fill="#616D77"/>
<path d="M98.0963 32.2982C98.0963 30.1698 98.0963 28.0414 98.0963 25.9131C98.0963 25.0085 98.0963 25.0085 99.0408 25.0085C99.5463 25.0085 100.065 25.0484 100.571 24.9952C101.169 24.942 101.409 25.1415 101.382 25.7667C101.342 27.0305 101.369 28.2942 101.369 29.5579C101.369 29.7176 101.355 29.8772 101.515 29.9703C101.701 30.0767 101.808 29.9171 101.901 29.8107C103.125 28.6135 104.548 28.5868 106.011 29.2121C107.421 29.8107 107.98 31.0079 108.007 32.4579C108.047 34.6262 108.007 36.8078 108.02 38.9761C108.02 39.4283 107.807 39.5481 107.408 39.5481C106.77 39.5348 106.118 39.5215 105.479 39.5481C104.907 39.588 104.694 39.3618 104.694 38.7898C104.721 37.0605 104.708 35.3312 104.694 33.6019C104.694 33.2427 104.668 32.8968 104.615 32.551C104.482 31.8459 103.976 31.3538 103.338 31.3005C102.593 31.234 101.888 31.6331 101.621 32.2849C101.409 32.8303 101.342 33.389 101.342 33.9743C101.355 35.5972 101.329 37.2068 101.355 38.8297C101.369 39.3884 101.169 39.588 100.624 39.5481C99.9986 39.5082 99.3867 39.5082 98.7615 39.5481C98.1895 39.588 98.0564 39.3485 98.0697 38.8031C98.1096 36.6481 98.0963 34.4665 98.0963 32.2982Z" fill="#616D77"/>
<path d="M115.123 11.4932C114.831 11.4932 114.551 11.4799 114.259 11.4932C113.86 11.5198 113.607 11.3735 113.434 10.9877C113.075 10.1763 111.665 9.89691 110.986 10.4822C110.534 10.8813 110.561 11.3336 111.093 11.6794C111.811 12.1317 112.663 12.1051 113.447 12.278C114.099 12.4111 114.724 12.5707 115.336 12.85C116.48 13.3688 117.106 14.2601 117.119 15.4972C117.132 16.7477 116.6 17.7587 115.496 18.4238C114.006 19.3017 112.383 19.3416 110.747 19.1155C109.896 18.9958 109.071 18.7696 108.326 18.2774C107.448 17.7054 107.062 16.8408 106.849 15.8697C106.77 15.5238 106.929 15.311 107.302 15.2977C108.1 15.2844 108.898 15.2977 109.696 15.2844C109.962 15.2844 110.069 15.4174 110.175 15.6569C110.667 16.7211 111.944 17.16 113.022 16.6679C113.368 16.5082 113.647 16.2688 113.674 15.8963C113.7 15.5371 113.434 15.2844 113.141 15.1115C112.503 14.7124 111.771 14.6459 111.053 14.5395C110.241 14.4197 109.457 14.2202 108.698 13.9009C106.623 13.023 106.809 10.5221 107.953 9.28499C108.845 8.28731 110.055 7.98135 111.292 7.84833C112.277 7.74191 113.274 7.78182 114.246 8.08777C115.562 8.50015 116.414 9.3116 116.706 10.6818C116.839 11.307 116.706 11.4799 116.055 11.4932C115.749 11.4932 115.443 11.4932 115.123 11.4932Z" fill="#616D77"/>
<path d="M96.0212 13.4753C96.0212 11.9455 96.0212 10.4157 96.0212 8.88592C96.0212 8.46024 96.1941 8.2208 96.6464 8.2208C97.1519 8.2341 97.6707 8.2341 98.1762 8.2208C98.6417 8.2075 99.0408 8.2208 99.1738 8.81941C99.2803 9.24509 99.6261 9.04555 99.7991 8.87262C100.371 8.31391 101.076 8.07447 101.834 8.00796C104.149 7.80842 105.852 9.01895 105.985 11.2538C106.118 13.5285 106.011 15.8165 106.025 18.1045C106.025 18.61 105.798 18.7563 105.333 18.743C104.668 18.7297 104.003 18.7164 103.338 18.743C102.819 18.7563 102.632 18.5435 102.646 18.038C102.659 16.2422 102.659 14.4463 102.659 12.6505C102.659 12.2514 102.646 11.8524 102.46 11.4799C102.207 10.9744 101.861 10.6285 101.236 10.6152C100.611 10.6019 100.105 10.8015 99.7858 11.3602C99.5463 11.7726 99.4266 12.1982 99.4266 12.6904C99.4399 14.4463 99.4133 16.189 99.4399 17.9449C99.4532 18.5435 99.227 18.7962 98.6284 18.7563C97.9899 18.7164 97.3381 18.743 96.6996 18.7563C96.2473 18.7563 96.0212 18.5834 96.0212 18.0779C96.0478 16.5348 96.0212 15.005 96.0212 13.4753Z" fill="#616D77"/>
<path d="M57.5638 13.4753C57.5638 14.9784 57.5505 16.4816 57.5771 17.9981C57.5904 18.5435 57.3775 18.7696 56.8321 18.743C56.3 18.7164 55.7679 18.7297 55.2359 18.743C54.8368 18.7563 54.5042 18.7297 54.3712 18.2375C54.2648 17.8917 54.0386 18.038 53.8125 18.2109C52.5621 19.1687 51.152 19.2618 49.7286 18.743C48.292 18.2109 47.5736 17.1068 47.5736 15.5771C47.5603 13.3422 47.5869 11.1074 47.5603 8.87262C47.5603 8.40703 47.7333 8.2341 48.1856 8.2474C48.8773 8.2607 49.5557 8.2607 50.2474 8.2474C50.7396 8.2341 50.9126 8.48685 50.9126 8.93913C50.8993 10.6152 50.8993 12.3046 50.886 13.9808C50.886 14.4996 50.9791 14.9917 51.0855 15.4839C51.2185 16.1225 51.7639 16.5082 52.4423 16.5215C53.1873 16.5348 53.7859 16.1358 54.012 15.4307C54.1451 14.9917 54.2249 14.5395 54.2249 14.0606C54.2116 12.3712 54.2382 10.6951 54.2116 9.00564C54.1983 8.43364 54.3845 8.19419 54.9831 8.2208C55.595 8.2607 56.2202 8.2474 56.8454 8.2208C57.3775 8.2075 57.6037 8.40703 57.5904 8.95243C57.5505 10.4689 57.5771 11.9721 57.5638 13.4753Z" fill="#616D77"/>
<path d="M58.1757 25.0085C59.9316 25.0085 61.6742 25.0218 63.4302 24.9952C64.0421 24.9819 64.2948 25.1415 64.2948 25.8066C64.2682 27.8153 64.2948 27.8153 62.2994 27.8153C61.8073 27.8153 61.3284 27.8153 60.8362 27.8153C59.8651 27.8153 59.8518 27.8153 59.8518 28.7731C59.8518 32.1253 59.8385 35.4642 59.8651 38.8164C59.8651 39.415 59.6789 39.588 59.1069 39.5614C58.4284 39.5215 57.7367 39.5215 57.045 39.5614C56.4996 39.588 56.3 39.415 56.3134 38.8563C56.34 35.4243 56.3134 31.979 56.34 28.5469C56.34 27.9616 56.1404 27.8153 55.6083 27.8286C54.6505 27.8552 53.7061 27.8153 52.7483 27.8419C52.1896 27.8552 51.9235 27.669 51.9634 27.0704C51.9901 26.6314 51.9901 26.1791 51.9634 25.7401C51.9368 25.1814 52.1896 25.0085 52.7217 25.0085C54.5441 25.0218 56.3533 25.0085 58.1757 25.0085Z" fill="#616D77"/>
<path d="M42.7981 34.3601C42.7981 32.8702 42.8114 31.3937 42.7848 29.9038C42.7715 29.3717 42.9577 29.1189 43.5164 29.1455C43.9554 29.1722 44.4077 29.1588 44.8466 29.1455C45.3388 29.1322 45.8044 29.079 45.9108 29.7974C45.964 30.1964 46.2833 30.0102 46.5094 29.8107C47.2943 29.1189 48.1989 28.7598 49.2364 28.8396C51.152 28.9859 52.6286 30.1432 52.6818 32.245C52.735 34.4798 52.6818 36.7146 52.7084 38.9627C52.7084 39.4017 52.5621 39.5614 52.1364 39.5481C51.4713 39.5348 50.8061 39.5215 50.141 39.5481C49.6222 39.5747 49.436 39.3751 49.4493 38.8563C49.4759 37.127 49.4626 35.3977 49.4626 33.6684C49.4626 33.3092 49.436 32.9633 49.3562 32.6175C49.1832 31.8193 48.7177 31.3405 48.0259 31.2872C47.2677 31.234 46.576 31.6863 46.3232 32.4046C46.137 32.9367 46.0838 33.4821 46.0838 34.0408C46.0705 35.7037 46.0705 37.3665 46.0971 39.0293C46.1104 39.415 46.004 39.5614 45.6315 39.5614C44.8732 39.5481 44.1283 39.5481 43.3701 39.5614C42.9311 39.5747 42.7981 39.3751 42.7981 38.9495C42.7981 37.4197 42.7981 35.8899 42.7981 34.3601Z" fill="#616D77"/>
<path d="M37.0647 11.4533C37.0647 9.2983 37.078 7.1566 37.0514 5.00161C37.0381 4.4429 37.1844 4.19016 37.7963 4.23006C38.5014 4.26997 39.2197 4.26997 39.9247 4.23006C40.4701 4.20346 40.6697 4.4163 40.6697 4.9617C40.6564 8.32722 40.683 11.6927 40.6431 15.0716C40.6431 15.7234 40.8692 15.8697 41.4545 15.8697C42.9843 15.8431 44.5141 15.883 46.0439 15.8564C46.6292 15.8431 46.9218 16.016 46.8686 16.6545C46.8287 17.1201 46.842 17.5857 46.8686 18.0513C46.8952 18.5302 46.6957 18.743 46.2168 18.743C43.3834 18.743 40.5366 18.743 37.7032 18.743C37.211 18.743 37.0647 18.5036 37.0647 18.038C37.078 15.8298 37.0647 13.6482 37.0647 11.4533Z" fill="#616D77"/>
<path d="M59.7321 14.6592C59.7321 13.5285 59.7188 12.3978 59.7454 11.2671C59.7587 10.7749 59.6124 10.4822 59.0803 10.5487C58.455 10.6285 58.2954 10.3093 58.3486 9.76388C58.3752 9.55104 58.3752 9.3249 58.3486 9.09876C58.2688 8.44694 58.5083 8.12768 59.2 8.2208C59.5592 8.26071 59.7188 8.08777 59.7454 7.72861C59.7853 7.32953 59.8651 6.94376 59.9183 6.55799C60.0779 5.25435 61.049 4.29658 62.6985 4.24337C63.4036 4.21676 64.1219 4.16355 64.8269 4.25667C65.9044 4.38969 65.226 5.26765 65.3723 5.78645C65.4654 6.15892 65.3989 6.54469 64.8003 6.49148C64.1219 6.42497 63.51 6.5979 63.2439 7.31623C63.0311 7.88824 63.2439 8.2341 63.8558 8.2341C65.4122 8.2075 65.1728 8.2208 65.1861 9.61755C65.1994 10.5487 65.1861 10.5487 64.2283 10.5487C63.204 10.5487 63.204 10.5487 63.204 11.5863C63.204 13.7147 63.1907 15.8431 63.2173 17.9715C63.2173 18.5435 63.0178 18.7829 62.4458 18.7563C61.7807 18.7297 61.1155 18.7297 60.4504 18.7563C59.9449 18.7829 59.7321 18.5834 59.7454 18.0646C59.7587 16.9206 59.7321 15.7899 59.7321 14.6592Z" fill="#616D77"/>
<path d="M67.2613 13.7679C67.2613 12.9432 67.248 12.1317 67.2613 11.307C67.2746 10.7749 67.075 10.4955 66.5296 10.5487C65.9177 10.6152 65.7315 10.3226 65.798 9.77718C65.8113 9.60425 65.798 9.41802 65.798 9.24509C65.798 8.31391 65.798 8.30061 66.7026 8.2341C67.1282 8.2075 67.2746 7.96805 67.2613 7.58228C67.2613 6.94376 67.2746 6.29194 67.248 5.65343C67.2347 5.17454 67.4209 4.9484 67.8998 4.9617C68.5915 4.975 69.2699 4.975 69.9617 4.9617C70.4538 4.9484 70.6401 5.17454 70.6135 5.65343C70.6002 6.27864 70.6401 6.89055 70.6002 7.51577C70.5603 8.10108 70.813 8.27401 71.3318 8.2341C71.4914 8.2208 71.6378 8.2474 71.7974 8.2341C72.3162 8.19419 72.529 8.44694 72.4891 8.95243C72.4758 9.05885 72.4891 9.17857 72.4891 9.28499C72.4891 10.4955 72.4891 10.5088 71.252 10.5487C70.7864 10.562 70.5736 10.7483 70.5869 11.2405C70.6135 12.5175 70.5869 13.8078 70.6002 15.0982C70.6135 16.1091 70.8928 16.4151 71.9171 16.3885C72.5157 16.3752 72.6754 16.6013 72.6621 17.1733C72.6088 18.9958 72.9015 18.743 71.0658 18.7563C70.4938 18.7563 69.9218 18.7829 69.3497 18.6898C68.0461 18.4903 67.3012 17.7187 67.2613 16.3752C67.2347 15.4839 67.2613 14.6193 67.2613 13.7679Z" fill="#616D77"/>
<path d="M40.6963 32.2583C40.6963 34.4532 40.683 36.6481 40.7096 38.8297C40.7229 39.3884 40.5366 39.588 39.9912 39.5614C39.2862 39.5215 38.5679 39.5348 37.8629 39.5614C37.3707 39.588 37.211 39.4017 37.2243 38.9095C37.2376 34.4798 37.2376 30.0501 37.2243 25.6204C37.2243 25.1814 37.384 25.0085 37.7963 25.0085C38.5546 25.0085 39.2995 25.0218 40.0578 25.0085C40.5366 24.9952 40.7229 25.1947 40.7096 25.6869C40.6963 27.8685 40.6963 30.0634 40.6963 32.2583Z" fill="#616D77"/>
<path fill-rule="evenodd" clip-rule="evenodd" d="M127.208 18.742C127.602 18.7816 128.004 18.822 128.346 18.4903C128.346 18.3972 128.346 18.3174 128.333 18.211C128.161 17.9961 128.171 17.7464 128.182 17.4972C128.184 17.4378 128.186 17.3785 128.186 17.3197C128.186 16.6768 128.188 16.0338 128.189 15.3909C128.192 14.1049 128.195 12.819 128.186 11.5331C128.173 9.91024 127.136 8.52679 125.659 8.11441C124.089 7.67543 122.533 7.68874 120.963 8.16762C119.58 8.5933 118.542 9.77722 118.449 11.0276C118.422 11.4134 118.529 11.5597 118.901 11.5597L118.921 11.5594C119.606 11.5462 120.278 11.5333 120.963 11.5464C121.269 11.5597 121.442 11.4533 121.588 11.174C122.081 10.1497 123.265 9.80383 124.262 10.3758C124.595 10.5621 124.848 10.8281 124.821 11.2139C124.794 11.5731 124.502 11.7992 124.182 11.9056C123.783 12.0386 123.371 12.1185 122.959 12.1983C122.775 12.2334 122.59 12.2665 122.406 12.2997C121.402 12.4804 120.395 12.6616 119.473 13.156C118.409 13.728 117.757 14.5794 117.757 15.8431C117.757 17.0936 118.303 18.0247 119.407 18.5834C121.163 19.4747 122.892 19.4215 124.555 18.3174C124.582 18.2984 124.612 18.276 124.642 18.2528C124.802 18.1301 124.991 17.9851 125.114 18.1977C125.466 18.8147 125.992 18.7746 126.51 18.7351C126.618 18.7269 126.725 18.7187 126.83 18.7165C126.953 18.7165 127.08 18.7292 127.208 18.742ZM122.28 16.7285C122.359 16.7271 122.436 16.7257 122.506 16.7345C124.222 16.8143 124.861 15.8831 124.981 14.4332C125.021 13.9543 124.754 13.7414 124.276 13.8878C124.065 13.9525 123.845 14.0024 123.624 14.0526C123.482 14.0849 123.339 14.1173 123.198 14.1538C123.119 14.175 123.04 14.1953 122.96 14.2156C122.489 14.3362 122.011 14.4585 121.602 14.7657C120.83 15.3377 120.91 16.2423 121.775 16.6547C121.944 16.7347 122.119 16.7315 122.28 16.7285Z" fill="#616D77"/>
<path fill-rule="evenodd" clip-rule="evenodd" d="M66.5106 39.712C66.6923 39.7422 66.876 39.7728 67.0218 39.9074C67.7268 39.9074 68.4452 39.9074 69.1502 39.8941C69.3221 39.7451 69.5237 39.7146 69.7293 39.6835C69.7624 39.6785 69.7955 39.6735 69.8286 39.668C70.7598 39.5083 71.5846 39.1093 72.2763 38.4442C73.7262 37.0474 73.9657 35.2649 73.7529 33.3759C73.5533 31.5801 72.6887 30.1833 71.0259 29.4384C69.0837 28.5737 67.075 28.587 65.1196 29.465C63.8026 30.0636 62.938 31.0746 62.5655 32.498C62.3394 33.3759 62.2595 34.2672 62.3394 35.1851C62.5655 37.5529 64.0953 39.2689 66.4099 39.6946C66.4432 39.7008 66.4769 39.7064 66.5106 39.712ZM70.2809 35.8236C70.4538 35.358 70.4805 34.8791 70.4538 34.4534C70.4538 34.3472 70.4571 34.2489 70.4601 34.1548C70.4659 33.9779 70.4712 33.8156 70.4538 33.642C70.3474 32.325 69.4961 31.3806 68.3521 31.2741C67.075 31.1677 66.0507 31.8461 65.7581 33.0567C65.5586 33.8814 65.5852 34.7461 65.7315 35.5708C65.9044 36.6217 66.8489 37.4199 67.8466 37.4731C69.0172 37.5396 69.8951 36.9277 70.2809 35.8236Z" fill="#616D77"/>
<path fill-rule="evenodd" clip-rule="evenodd" d="M94.8757 15.9185C94.8764 15.7146 94.8772 15.524 94.8772 15.3507C94.83 14.6318 94.8325 13.9755 94.8348 13.353C94.8377 12.5702 94.8405 11.8408 94.7441 11.1072C94.5579 9.72379 93.8529 8.7261 92.5891 8.26052C90.6869 7.55549 88.758 7.58209 86.909 8.46005C85.8714 8.95224 85.2196 9.7903 85.0732 10.9742C85.02 11.3733 85.1531 11.5595 85.5521 11.5595C85.7738 11.5595 85.9956 11.558 86.2173 11.5566C86.6607 11.5536 87.1041 11.5507 87.5475 11.5595C87.8668 11.5595 88.0663 11.4265 88.2126 11.1338C88.6117 10.3224 89.4631 9.93663 90.3011 10.1628C90.8465 10.3091 91.4717 10.4953 91.4318 11.1738C91.3919 11.7857 90.8066 11.9453 90.2612 12.065C89.9122 12.1401 89.5622 12.2045 89.2129 12.2689C88.3239 12.4326 87.4397 12.5954 86.5897 12.9297C85.4058 13.3953 84.5145 14.1535 84.3815 15.497C84.2485 16.9204 84.7806 18.0112 86.0975 18.6497C87.8002 19.4745 89.4764 19.3947 91.0726 18.3704C91.4318 18.1442 91.7112 17.9713 91.9373 18.5034C92.0038 18.663 92.1901 18.7295 92.3896 18.7295H94.4515C94.784 18.7295 94.9037 18.5699 94.8904 18.2241C94.87 17.4074 94.8731 16.5908 94.8757 15.9185ZM89.0193 16.7402C89.0661 16.737 89.1083 16.7342 89.1438 16.7342C90.4474 16.9204 91.658 16.0025 91.5382 14.2865C91.5116 13.9007 91.3121 13.7278 90.9795 13.8741C90.6969 13.9953 90.4094 14.0478 90.1229 14.1001C89.9375 14.1339 89.7524 14.1677 89.5695 14.22C89.5307 14.2307 89.4919 14.2412 89.4532 14.2517C88.9604 14.3854 88.4752 14.5171 88.0929 14.9117C87.8136 15.2044 87.5741 15.497 87.6938 15.8961C87.8269 16.3218 88.1461 16.6144 88.5718 16.7209C88.7278 16.7599 88.8909 16.7488 89.0193 16.7402Z" fill="#616D77"/>
<path fill-rule="evenodd" clip-rule="evenodd" d="M22.4719 11.5597C22.5251 5.4938 17.6431 0.531982 11.7368 0.531982C5.56451 0.545285 0.762323 5.24105 0.655904 11.2272C0.536182 17.6256 5.56451 22.3347 11.4708 22.3746C17.6697 22.4145 22.4187 17.599 22.4719 11.5597ZM12.6015 21.2039C17.284 20.7383 21.3545 16.681 21.3678 11.4266C21.2215 5.6134 16.7253 1.59606 11.4442 1.63596C5.87047 1.68917 1.73341 6.29182 1.76001 11.5463C1.78662 16.8274 6.28284 21.8158 12.6015 21.2039Z" fill="#616D77"/>
<path d="M8.93002 11.1872C8.39793 11.2005 7.98555 10.9212 7.53327 10.7882C7.37364 10.7483 7.1608 10.5354 7.06768 10.735C6.92135 11.0276 7.26722 11.001 7.41354 11.0941C9.39561 12.3579 11.8965 11.7193 12.801 9.64416C12.9341 9.35151 13.1336 9.15197 13.4928 9.12536C15.6611 8.91253 17.8294 8.96573 19.9844 9.09876C20.144 9.11206 20.4765 9.04555 20.4366 9.3382C20.3834 9.61755 20.0775 9.63086 19.8247 9.57765C18.6275 9.3249 17.4037 9.40472 16.1932 9.37811C16.1 9.37811 16.0202 9.37811 15.9271 9.39141C15.7941 9.40472 15.6345 9.43132 15.6212 9.59095C15.6079 9.79049 15.7808 9.81709 15.9537 9.81709C16.6587 9.81709 17.3771 9.81709 18.0821 9.81709C18.5078 9.81709 18.9202 9.80379 19.3325 9.93681C19.4922 9.99002 19.7582 9.91021 19.7582 10.1363C19.7449 10.3758 19.4922 10.3625 19.2926 10.3625C18.1353 10.3492 16.9913 10.3492 15.834 10.3359C15.6744 10.3359 15.528 10.3359 15.3684 10.3492C15.2354 10.3625 15.0758 10.4024 15.0758 10.5487C15.0758 10.6951 15.2221 10.7616 15.3684 10.7483C15.7409 10.7217 16.1133 10.6684 16.4858 10.6684C17.1908 10.6551 17.8959 10.6285 18.6009 10.7483C18.8004 10.7882 19.1197 10.6684 19.0931 11.001C19.0798 11.2538 18.7871 11.2804 18.561 11.2804C17.5899 11.2804 16.6055 11.2671 15.6345 11.2937C15.3152 11.307 14.7166 11.0941 14.7432 11.4799C14.7698 11.8657 15.3817 11.6395 15.7276 11.6395C16.4991 11.6395 17.2707 11.6129 18.0555 11.6129C18.2284 11.6129 18.4679 11.5996 18.4413 11.8524C18.4147 12.0918 18.2018 12.1184 17.989 12.0918C16.273 11.8923 14.6102 12.1184 13.0006 12.7702C12.3621 13.023 12.3488 13.1959 12.8942 13.6482C14.1712 14.6858 15.6877 15.1115 17.2973 15.2711C17.4569 15.2844 17.6963 15.1647 17.7628 15.3908C17.8294 15.617 17.5766 15.7234 17.4436 15.8431C17.1908 16.0958 16.8849 16.0293 16.5656 15.9495C13.1203 15.178 9.95431 13.728 6.94796 11.8524C5.75074 11.0941 4.50031 10.4423 3.17006 9.96342C3.05034 9.92351 2.93062 9.857 2.8109 9.79049C2.66457 9.71067 2.55815 9.59095 2.62466 9.41802C2.70448 9.21848 2.86411 9.19188 3.06364 9.27169C3.51593 9.47123 3.94161 9.56435 4.34068 9.15197C4.4604 9.01894 4.63333 9.12536 4.77966 9.17857C6.05669 9.71067 7.34703 10.2428 8.62407 10.7882C8.75709 10.8547 8.93002 10.8946 8.93002 11.1872Z" fill="#616D77"/>
</svg>
