<svg xmlns="http://www.w3.org/2000/svg" width="143" height="40" fill="none"><defs/><path fill="#1D2F3C" d="M56.073 22.35V30H52.79v-7.65c0-1.925-1.206-3.06-2.895-3.06-1.447 0-3.281.888-3.281 3.356v7.353h-3.33V9.567h3.33V18.5c.627-1.776 2.51-2.517 4.343-2.517 3.185 0 5.115 2.418 5.115 6.367zM58.968 11.69c0-1.184.676-1.825 1.834-1.825 1.206 0 1.882.641 1.882 1.826 0 1.184-.676 1.875-1.882 1.875-1.158-.05-1.834-.69-1.834-1.875zm.193 4.59h3.33v13.77h-3.33V16.28zM74.507 15.984v3.208h-1.593c-3.716 0-3.86 3.85-3.86 3.85V30h-3.33V16.28h3.33v3.06s.772-3.356 3.86-3.356h1.593zM89.128 24.187H78.656c.338 2.22 1.882 3.307 3.86 3.307 1.352 0 2.607-.494 3.475-1.728l2.413 1.629c-1.206 1.925-3.62 2.961-5.935 2.961-3.957 0-7.094-2.862-7.094-7.205 0-4.294 3.137-7.107 6.997-7.107 3.764 0 6.852 2.764 6.852 7.057l-.096 1.086zm-3.137-2.023c0-2.123-1.737-3.258-3.57-3.258-1.738 0-3.379.987-3.765 3.258h7.335zM104.666 22.35V30h-3.33v-7.65c0-1.925-1.206-3.06-2.895-3.06-1.448 0-3.281.888-3.281 3.356v7.353h-3.33V9.567h3.33V18.5c.627-1.776 2.509-2.517 4.343-2.517 3.233 0 5.163 2.418 5.163 6.367zM107.562 11.69c0-1.184.675-1.825 1.833-1.825 1.207 0 1.882.641 1.882 1.826 0 1.184-.675 1.875-1.882 1.875-1.158-.05-1.833-.69-1.833-1.875zm.193 4.59h3.329v13.77h-3.329V16.28zM127.153 16.281l-5.742 13.77h-2.992l-5.646-13.77h3.523l3.667 9.575 3.619-9.575h3.571zM141.823 24.187h-10.471c.337 2.22 1.882 3.307 3.86 3.307 1.351 0 2.606-.494 3.475-1.728l2.412 1.629c-1.206 1.925-3.619 2.961-5.935 2.961-3.957 0-7.094-2.862-7.094-7.205 0-4.294 3.137-7.107 6.997-7.107 3.764 0 6.853 2.764 6.853 7.057l-.097 1.086zm-3.136-2.023c0-2.123-1.738-3.258-3.571-3.258-1.738 0-3.378.987-3.764 3.258h7.335z"/><path fill="#FEC32D" d="M6.756 7.44c0-.938-.628-1.283-1.448-.84l-3.86 2.32C.676 9.365 0 10.5 0 11.437v17.126c0 .937.627 2.072 1.448 2.517l14.476 8.587c.772.444 2.075.444 2.847 0l14.525-8.538c.772-.444 1.448-1.58 1.448-2.517V11.437c0-.937-.627-2.072-1.448-2.517L18.82.333c-.772-.444-2.075-.444-2.847 0l-3.91 2.32c-.771.444-1.447 1.579-1.447 2.517v19.099c0 .494.338 1.036.724 1.283l1.689.987c.772.444 1.448.099 1.448-.839v-6.81c0-.297.24-.691.482-.84l1.93-1.134c.29-.149.724-.149.966 0l1.93 1.135c.241.148.482.543.482.839v6.86c0 .937.628 1.283 1.448.838l1.689-.986c.386-.247.724-.84.724-1.284v-7.402c0-.494-.338-1.037-.724-1.284l-5.308-3.109c-.386-.247-1.062-.247-1.448 0l-2.171 1.234V6.354c0-.296.24-.69.482-.839l1.93-1.135c.29-.148.724-.148.966 0L30.4 11.783c.241.148.483.543.483.839v14.805c0 .297-.242.691-.483.84l-12.546 7.402c-.242.148-.724.148-.966 0L4.343 28.267c-.29-.149-.483-.543-.483-.84V12.622c0-.296.193-.691.483-.84l1.689-.986c.386-.247.724-.84.724-1.283V7.44z"/></svg>