<svg xmlns="http://www.w3.org/2000/svg" width="196" height="32" fill="none"><defs/><g clip-path="url(#clip0)"><path fill="#fff" d="M67.702 19.621h1.464v3.54h-2.534c-1.792 0-2.732-.94-2.732-2.731V7.56l3.824-2.185-.022 14.246zm18.748-7.035c0-4.567-1.967-6.796-5.987-6.796-2.47 0-4.24 1.617-5.179 2.666V6.162h-3.802V23.16h3.802v-7.735c0-.721.066-1.333.219-1.813.59-2.164 2.534-4.13 4.697-4.13 1.836 0 2.426.896 2.426 3.649v7.298c0 1.791.94 2.731 2.71 2.731h2.534v-3.54h-1.464v-7.035h.043zM16.114 16.3c0 4.086-2.906 6.84-7.232 6.84H.667V.11H8.62c3.977 0 6.642 2.512 6.642 6.226 0 1.836-.655 3.41-1.879 4.523 1.726 1.093 2.731 3.081 2.731 5.441zM4.534 9.352h4.064c1.66 0 2.731-1.115 2.731-2.863 0-1.726-1.027-2.775-2.775-2.775h-4.02v5.638zm7.626 6.904c0-2.032-1.311-3.343-3.322-3.343H4.534v6.62h4.348c2.054 0 3.278-1.223 3.278-3.277zm53.75-11.58a2.34 2.34 0 002.338-2.338A2.34 2.34 0 0065.91 0a2.322 2.322 0 00-2.316 2.338 2.308 2.308 0 002.316 2.338zM33.267 15.645H21.708c.393 2.622 2.294 4.304 4.96 4.304 2.25 0 3.78-1.442 3.955-1.617l.765-.787 1.988 3.06-.503.502c-.087.088-2.469 2.425-6.27 2.425-5.135 0-8.85-3.692-8.85-8.805 0-5.2 3.453-8.828 8.39-8.828 5.026 0 7.255 3.955 7.255 7.866 0 .394-.066 1.071-.066 1.137l-.065.743zM29.42 12.28c-.35-1.858-1.573-2.95-3.321-2.95-1.945 0-3.452 1.092-4.13 2.95h7.451zm19.337 7.341h1.464v3.54h-2.469c-1.486 0-2.163-.655-2.469-1.398-.918.895-2.36 1.77-4.435 1.77-3.016 0-6.053-1.858-6.053-5.398 0-6.118 7.8-6.14 10.379-6.14-.153-1.813-1.246-2.6-3.125-2.6-2.141 0-3.758 1.246-3.758 1.268l-.765.633-1.879-3.059.546-.48c.088-.066 2.295-1.945 6.01-1.945 4.173 0 6.554 2.447 6.554 6.73v7.08zm-3.605-4.282c-4.632 0-6.686.852-6.686 2.753 0 1.049.83 2.12 2.666 2.12 2.338 0 3.933-2.47 4.02-4.873zm77.895-7.932c0 4.348-3.059 7.385-7.451 7.385h-4.042v8.369h-3.867V.109h7.909c4.392 0 7.451 2.994 7.451 7.298zm-3.933 0c0-2.294-1.398-3.67-3.758-3.67h-3.802v7.428h3.758c2.382 0 3.802-1.398 3.802-3.758zm21.828 7.189c0 5.003-3.911 8.936-8.893 8.936-5.003 0-8.936-3.933-8.936-8.936 0-4.916 3.911-8.784 8.914-8.784 5.004 0 8.915 3.846 8.915 8.784zm-3.845 0c0-2.906-2.207-5.157-5.026-5.157-2.84 0-5.069 2.273-5.069 5.157 0 2.993 2.229 5.353 5.069 5.353 2.797-.022 5.026-2.36 5.026-5.353zm35.812 1.813V9.636h3.824V6.162h-3.824V1.027l-3.78 2.185V6.14h-2.032v3.474h2.01v6.992c0 5.9 4.326 6.533 6.183 6.533.853 0 1.748-.197 1.748-.197v-3.648s-1.07.262-1.573.262c-1.704 0-2.556-1.05-2.556-3.147zM60.098 6.01c-1.507 0-2.971 1.07-3.954 2.687V6.162h-3.78V23.16h3.801v-7.298c0-.983.132-1.9.394-2.731.611-2.054 1.988-3.321 3.583-3.321.459 0 1.617.218 1.617.218V6.271c.022 0-.918-.262-1.66-.262zm40.488.153v2.075C99.691 5.9 96.326 5.9 96.326 5.9c-4.545 0-7.473 3.278-7.473 8.478 0 5.113 3.146 9.155 7.67 9.155 1.573 0 2.905-.393 3.954-1.18v.11c0 2.512-1.573 3.91-4.457 3.91-1.967 0-3.671-.939-3.693-.939l-.83-.459-1.53 3.344.743.371A11.969 11.969 0 0096.085 30c3.955 0 8.194-2.01 8.194-7.604V6.162h-3.693zm-3.823 13.59c-2.491 0-4.086-2.01-4.086-5.134 0-3.169 1.354-4.917 3.823-4.917 2.732 0 3.955 1.53 3.955 4.938-.022 3.387-1.267 5.113-3.692 5.113zm50.102-.13h1.464v3.539h-2.557c-1.77 0-2.731-.94-2.731-2.731V7.56l3.824-2.185v14.246zm18.747-7.036c0-4.567-1.967-6.796-5.987-6.796-2.491 0-4.239 1.617-5.178 2.666V6.162h-3.802V23.16h3.802v-7.735c0-.721.065-1.333.218-1.813.59-2.164 2.535-4.13 4.698-4.13 1.835 0 2.425.896 2.425 3.649v7.298c0 1.791.94 2.731 2.71 2.731h2.534v-3.54h-1.464v-7.035h.044zm-20.561-7.91a2.34 2.34 0 002.338-2.338A2.34 2.34 0 00145.051 0a2.34 2.34 0 00-2.338 2.338c.022 1.29 1.071 2.338 2.338 2.338zm40.554 16.3c-.066-.48-.241-.765-.525-.808v-.022c.35-.088.656-.372.656-.765 0-.35-.11-.568-.306-.721-.219-.175-.568-.262-1.136-.262a5.94 5.94 0 00-1.071.087v3.343h.699v-1.376h.328c.35 0 .568.152.634.502.065.459.109.743.196.874h.721c-.065-.131-.131-.328-.196-.852zm-1.355-1.158h-.372v-.962c.11-.021.241-.021.416-.021.524 0 .742.218.742.48 0 .372-.349.503-.786.503zm.153-3.212c-1.814 0-3.299 1.551-3.299 3.474 0 1.945 1.442 3.452 3.299 3.452h.044c1.813 0 3.299-1.55 3.299-3.452 0-1.923-1.486-3.474-3.343-3.474zm.044 6.205h-.044c-1.464 0-2.6-1.201-2.6-2.753 0-1.53 1.158-2.753 2.6-2.753 1.464 0 2.644 1.246 2.644 2.753 0 1.53-1.158 2.753-2.6 2.753z"/></g><defs><clipPath id="clip0"><path fill="#fff" d="M0 0h195v32H0z" transform="translate(.667)"/></clipPath></defs></svg>