<svg width="107" height="40" viewBox="0 0 107 40" fill="none" xmlns="http://www.w3.org/2000/svg">
<g clip-path="url(#clip0)">
<g clip-path="url(#clip1)">
<path d="M58.7017 31.1174C58.8 31.1176 58.8981 31.11 58.9951 31.0946C59.071 31.0838 59.1461 31.0679 59.2198 31.047V31.487C59.1324 31.5246 59.04 31.5496 58.9456 31.5613C58.8373 31.5797 58.7278 31.5899 58.6179 31.5917C57.884 31.5917 57.517 31.2051 57.517 30.4317V28.1746H56.9741V27.8984L57.517 27.6584L57.7589 26.8489H58.0922V27.7289H59.1932V28.1746H58.0922V30.407C58.0788 30.5963 58.1366 30.7837 58.2541 30.9327C58.3686 31.0576 58.5325 31.1252 58.7017 31.1174Z" fill="#616D77"/>
<path d="M61.8652 31.5936C61.368 31.6212 60.8827 31.4347 60.5319 31.0812C60.1886 30.6895 60.0134 30.1783 60.0443 29.6584C60.0161 29.1344 60.1762 28.6176 60.4957 28.2012C60.7943 27.8425 61.2426 27.6427 61.709 27.6603C62.1366 27.6401 62.5508 27.8119 62.8385 28.1289C63.1266 28.4753 63.2747 28.9169 63.2538 29.367V29.7308H60.6462C60.6305 30.0985 60.7505 30.4591 60.9833 30.7441C61.2191 30.9848 61.5479 31.1113 61.8843 31.0908C62.3018 31.0887 62.7146 31.0019 63.0976 30.8355V31.3479C62.9138 31.43 62.7224 31.4938 62.5262 31.5384C62.3083 31.5794 62.0868 31.5979 61.8652 31.5936ZM61.709 28.1422C61.4341 28.1298 61.1675 28.2384 60.9795 28.4393C60.785 28.6716 60.6725 28.9615 60.6595 29.2641H62.6424C62.663 28.9667 62.5772 28.6717 62.4004 28.4317C62.227 28.2337 61.9718 28.1269 61.709 28.1422Z" fill="#616D77"/>
<path d="M66.0382 31.5925C65.5584 31.6208 65.0908 31.4345 64.762 31.084C64.461 30.7475 64.3105 30.2694 64.3105 29.6497C64.3105 29.03 64.4636 28.5398 64.7696 28.1792C65.1056 27.8193 65.5849 27.6286 66.0763 27.6592C66.26 27.66 66.4432 27.6798 66.6229 27.7182C66.7711 27.7464 66.9151 27.7931 67.0515 27.8573L66.8763 28.3449C66.7416 28.2914 66.6027 28.2494 66.461 28.2192C66.3306 28.1875 66.1971 28.1702 66.0629 28.1678C65.2921 28.1678 64.9067 28.6598 64.9067 29.644C64.8823 30.0225 64.9812 30.3988 65.1886 30.7163C65.387 30.9741 65.7002 31.1168 66.0248 31.0973C66.3588 31.0933 66.6888 31.0241 66.9963 30.8935V31.4021C66.6967 31.5411 66.3681 31.6064 66.0382 31.5925Z" fill="#616D77"/>
<path d="M70.7774 31.5222V29.0689C70.7967 28.8194 70.7212 28.5718 70.566 28.3755C70.3876 28.21 70.1475 28.1276 69.905 28.1489C69.505 28.1489 69.2136 28.2555 69.0307 28.4727C68.8479 28.6898 68.7545 29.0441 68.7545 29.5394V31.5222H68.1831V26.1375H68.7545V27.7679C68.7571 27.9309 68.7482 28.0938 68.7279 28.2555H68.7717C68.8888 28.069 69.0566 27.9197 69.2555 27.8251C69.4774 27.7158 69.7224 27.6616 69.9698 27.667C70.3471 27.6386 70.7209 27.7566 71.0136 27.9965C71.2434 28.2174 71.359 28.5679 71.3602 29.0479V31.5241L70.7774 31.5222Z" fill="#616D77"/>
<path d="M75.4129 31.5222V29.0689C75.4322 28.8194 75.3567 28.5718 75.2015 28.3756C75.0231 28.21 74.783 28.1276 74.5406 28.1489C74.2166 28.1205 73.8969 28.2378 73.6682 28.4689C73.4828 28.6835 73.3907 29.0378 73.392 29.5317V31.5222H72.8206V27.7298H73.2872L73.3806 28.2479H73.4091C73.5294 28.0589 73.7012 27.9082 73.9044 27.8136C74.1256 27.7086 74.368 27.6558 74.6129 27.6594C74.9871 27.6311 75.3575 27.75 75.6453 27.9908C75.8764 28.2117 75.992 28.5641 75.992 29.0479V31.5241L75.4129 31.5222Z" fill="#616D77"/>
<path d="M80.725 29.6233C80.725 30.2404 80.5689 30.7242 80.2584 31.0709C79.9264 31.4274 79.4535 31.6185 78.967 31.5928C78.6495 31.5986 78.3368 31.5155 78.0641 31.3528C77.7969 31.1903 77.5846 30.9514 77.4546 30.6671C77.3051 30.3398 77.2315 29.983 77.2393 29.6233C77.2393 29.0049 77.3943 28.5229 77.7041 28.1775C78.0353 27.8226 78.5069 27.6328 78.9917 27.6595C79.4712 27.6383 79.9351 27.8325 80.2565 28.189C80.5854 28.5923 80.7524 29.1036 80.725 29.6233ZM77.8355 29.6233C77.8097 30.0138 77.9113 30.4021 78.1251 30.7299C78.3439 30.9726 78.6554 31.1111 78.9822 31.1111C79.309 31.1111 79.6205 30.9726 79.8393 30.7299C80.0556 30.4024 80.1586 30.013 80.1327 29.6214C80.1591 29.2327 80.0559 28.8462 79.8393 28.5223C79.6309 28.2624 79.309 28.1202 78.9765 28.1414C78.6494 28.1184 78.3317 28.2563 78.1251 28.5109C77.932 28.7636 77.8355 29.1344 77.8355 29.6233Z" fill="#616D77"/>
<path d="M82.5893 31.5222H82.0178V26.1375H82.5893V31.5222Z" fill="#616D77"/>
<path d="M87.3672 29.6233C87.3672 30.2404 87.211 30.7242 86.9005 31.0709C86.5685 31.4274 86.0956 31.6185 85.6091 31.5928C85.2916 31.5986 84.9788 31.5155 84.7062 31.3528C84.439 31.1903 84.2267 30.9514 84.0967 30.6671C83.9472 30.3398 83.8736 29.983 83.8814 29.6233C83.8814 29.0049 84.0363 28.5229 84.3462 28.1775C84.6774 27.8226 85.149 27.6328 85.6338 27.6595C86.1133 27.6383 86.5772 27.8325 86.8986 28.189C87.2275 28.5923 87.3945 29.1036 87.3672 29.6233ZM84.4776 29.6233C84.4518 30.0138 84.5534 30.4021 84.7671 30.7299C84.986 30.9726 85.2975 31.1111 85.6243 31.1111C85.9511 31.1111 86.2626 30.9726 86.4814 30.7299C86.6977 30.4024 86.8007 30.013 86.7748 29.6214C86.8012 29.2327 86.698 28.8462 86.4814 28.5223C86.273 28.2624 85.9511 28.1202 85.6186 28.1414C85.2915 28.1184 84.9738 28.2563 84.7671 28.5109C84.5741 28.7636 84.4776 29.1344 84.4776 29.6233Z" fill="#616D77"/>
<path d="M91.7622 27.7303V28.0922L91.0593 28.176C91.1324 28.2722 91.1908 28.3788 91.2326 28.4922C91.2855 28.6334 91.3114 28.7833 91.3088 28.9341C91.3228 29.2729 91.1828 29.5999 90.9279 29.8236C90.6322 30.0596 90.2599 30.1783 89.8822 30.1569C89.7755 30.1575 89.669 30.1479 89.5641 30.1284C89.3577 30.2063 89.2146 30.3961 89.1964 30.616C89.1916 30.7114 89.242 30.801 89.326 30.8465C89.4638 30.9064 89.6142 30.9319 89.7641 30.9207H90.4364C90.7739 30.899 91.1089 30.9902 91.3888 31.1798C91.6161 31.365 91.739 31.6492 91.7184 31.9417C91.7327 32.3266 91.5402 32.6898 91.2136 32.8941C90.8764 33.115 90.385 33.2236 89.7393 33.2236C89.3393 33.2474 88.9414 33.1512 88.5964 32.9474C88.3333 32.7758 88.1799 32.4784 88.1926 32.1645C88.1889 31.9446 88.2678 31.7312 88.4136 31.5665C88.5795 31.3889 88.7977 31.2688 89.0364 31.2236C88.9386 31.1783 88.8545 31.108 88.7926 31.0198C88.7268 30.9255 88.6922 30.8129 88.6936 30.6979C88.6916 30.5681 88.7302 30.4409 88.8041 30.3341C88.8994 30.2112 89.0186 30.1088 89.1545 30.0331C88.9558 29.949 88.7881 29.8052 88.6745 29.6217C88.5485 29.423 88.4824 29.1922 88.4841 28.9569C88.4674 28.5993 88.6063 28.252 88.865 28.0046C89.1635 27.7624 89.5425 27.642 89.926 27.6674C90.1069 27.6647 90.2872 27.6885 90.4612 27.7379L91.7622 27.7303ZM88.7374 32.1607C88.7295 32.3525 88.8295 32.5327 88.9964 32.6274C89.2256 32.7472 89.483 32.8025 89.7412 32.7874C90.111 32.8122 90.4808 32.7372 90.8117 32.5703C91.0273 32.4541 91.1614 32.2285 91.1603 31.9836C91.1785 31.8174 91.1057 31.6543 90.9698 31.5569C90.7448 31.4578 90.4986 31.4166 90.2536 31.4369H89.5641C89.3446 31.4248 89.1281 31.4924 88.9545 31.6274C88.8054 31.7633 88.7256 31.9593 88.7374 32.1607ZM89.0479 28.9531C89.0327 29.1767 89.1146 29.3961 89.2726 29.555C89.4485 29.6993 89.6722 29.7721 89.8993 29.7588C90.4618 29.7588 90.7425 29.4865 90.7412 28.9417C90.7412 28.3728 90.4574 28.0877 89.8898 28.0865C89.6609 28.0709 89.4357 28.1501 89.2669 28.3055C89.1086 28.4825 89.0295 28.7164 89.0479 28.9531Z" fill="#616D77"/>
<path d="M92.2219 27.7305H92.8391L93.6695 29.8924C93.8069 30.241 93.9202 30.5987 94.0086 30.9629H94.0372C94.0657 30.8448 94.1286 30.6448 94.2276 30.359C94.3267 30.0733 94.6353 29.1971 95.1667 27.7305H95.7838L94.1534 32.0505C94.0421 32.3965 93.8456 32.7089 93.5819 32.959C93.3565 33.1394 93.0743 33.2339 92.7857 33.2257C92.6113 33.2261 92.4375 33.2062 92.2676 33.1667V32.7076C92.4074 32.7362 92.5497 32.7502 92.6924 32.7495C93.0886 32.7495 93.3686 32.5267 93.5381 32.0848L93.7495 31.5438L92.2219 27.7305Z" fill="#616D77"/>
<path d="M1.5953 9.14337C1.5953 5.70147 4.33244 3.87671 7.52482 3.87671C9.22577 3.87671 10.7629 4.33195 11.5896 4.78909L11.4239 6.19861C10.2323 5.63541 8.93231 5.33837 7.61435 5.32814C5.41625 5.32814 3.34197 6.48814 3.34197 8.77004C3.34197 11.1338 4.33816 12.2538 6.86768 13.3415C10.641 14.9586 12.342 16.4919 12.342 18.9396C12.342 22.5891 9.48482 24.6196 5.58197 24.6196C3.7153 24.6196 1.93244 24.2481 0.646729 23.5415L0.812443 22.09C2.37078 22.815 4.07094 23.1839 5.78958 23.17C8.64673 23.17 10.5991 21.7586 10.5991 19.3605C10.5991 17.4119 9.52101 16.1224 6.12101 14.7167C3.33625 13.5338 1.5953 11.8767 1.5953 9.14337Z" fill="#616D77"/>
<path d="M24.2001 5.73614H19.6287V19.4638C19.6287 22.2009 20.9144 23.1552 22.4858 23.1552C23.2678 23.1702 24.0449 23.029 24.7716 22.74L24.9373 24.0733C24.1087 24.4542 23.362 24.6123 22.0801 24.6123C19.7582 24.6123 17.9754 23.2447 17.9754 20.0104V5.74376H15.0249V4.28471H17.9697V0.0942383H19.6287V4.28471H24.2001V5.73614Z" fill="#616D77"/>
<path d="M64.2021 5.73866C63.4658 5.83888 62.7582 6.09051 62.124 6.47771C60.0078 7.84723 58.8478 10.3768 58.8478 15.1463V24.192H57.1887V4.20533H58.7221L58.8478 9.30628H58.9297C59.9659 6.06818 61.8744 4.03961 64.2802 3.78247L64.2021 5.73866Z" fill="#616D77"/>
<path d="M83.0267 9.01297C84.6857 5.23964 87.1333 3.87012 89.8705 3.87012C93.7676 3.87012 95.5848 6.68916 95.5848 11.2092V24.1901H93.9333V11.8339C93.9333 7.60345 92.6476 5.35774 89.2476 5.35774C85.5981 5.35774 83.1924 8.96726 83.1924 13.3215V24.1787H81.5333V11.9158C81.5333 7.85297 80.2 5.36345 76.8476 5.36345C73.1981 5.36345 70.7943 8.88916 70.7943 13.3273V24.1844H69.1353V4.28536H70.6762L70.8019 8.35012H70.8838C72.2533 5.61297 74.4095 3.87202 77.4781 3.87202C80.5048 3.87202 82.3295 6.19393 82.9105 9.01488L83.0267 9.01297Z" fill="#616D77"/>
<path fill-rule="evenodd" clip-rule="evenodd" d="M52.0699 17.5027C51.407 18.6773 50.2121 20.0868 48.4851 21.7312C46.7581 23.3757 44.3708 24.9331 41.3232 26.4036L37.4013 28.0284L36.2585 25.415L37.7232 24.596C38.5588 24.0881 39.355 23.5541 40.1118 22.9941C40.1236 22.989 40.1341 22.9812 40.1423 22.9712C40.1423 22.9712 40.1423 22.9712 40.1594 22.9712C40.5124 22.6804 40.854 22.3922 41.1842 22.1065C41.3747 21.9274 41.5747 21.7484 41.7747 21.5693C41.7953 21.5447 41.8109 21.5162 41.8204 21.4855C41.8512 21.4804 41.8801 21.4673 41.9042 21.4474C42.3956 20.9796 42.8539 20.478 43.2756 19.9465C43.2957 19.9194 43.3071 19.8868 43.308 19.8531C43.3082 19.8292 43.3023 19.8056 43.2908 19.7846L43.3842 19.7693C43.42 19.7584 43.4518 19.7372 43.4756 19.7084C45.1594 17.5268 45.8515 15.3046 45.5518 13.0417C45.1708 9.93059 43.2381 8.29631 39.7537 8.13885C39.2246 8.11385 38.6943 8.12658 38.167 8.17694C38.7437 8.06312 39.3272 7.98677 39.9137 7.94837C43.4883 7.75408 45.807 9.12234 46.8699 12.0531C47.7054 14.4493 47.0978 16.8931 45.047 19.3846C44.3715 20.1912 43.6137 20.9254 42.7861 21.575L41.6604 22.396C41.6299 22.4207 41.6101 22.4561 41.6051 22.495C41.5957 22.5325 41.605 22.5722 41.6299 22.6017C41.6487 22.6369 41.6822 22.662 41.7213 22.6703C41.7609 22.6762 41.8014 22.6681 41.8356 22.6474L43.0623 21.8855C44.0246 21.2545 44.9022 20.503 45.6737 19.6493C48.0737 16.9979 48.8115 14.0919 47.887 10.9312C47.1251 8.21504 44.9753 6.74202 41.4375 6.51218C41.3308 6.50075 41.2261 6.49313 41.1232 6.48932C41.6391 6.46265 42.156 6.46265 42.6718 6.48932C46.8623 6.70266 49.3112 8.57123 50.0185 12.095C50.4832 14.4696 49.6147 16.9134 47.4128 19.4265L47.3975 19.4417L43.8966 22.5217L43.8813 22.5369C43.8507 22.5613 43.8315 22.5971 43.828 22.636C43.821 22.6749 43.8323 22.7149 43.8585 22.7446C43.8843 22.7747 43.9189 22.796 43.9575 22.8055C43.9952 22.81 44.0334 22.802 44.0661 22.7827L45.3899 21.9236C46.4091 21.2021 47.3512 20.3774 48.2013 19.4627C50.8261 16.6182 51.715 13.6461 50.868 10.5465C49.9956 7.38456 47.7867 5.56107 44.2413 5.07599C44.588 5.08742 44.9308 5.11028 45.268 5.14647C50.007 5.55408 52.6064 7.87027 53.0661 12.095C53.2845 14.0912 52.9524 15.8938 52.0699 17.5027ZM43.6604 2.64551C41.8792 3.54717 40.2234 4.67734 38.7347 6.00742C38.5099 6.21313 38.2966 6.41313 38.0985 6.61313C38.0864 6.62418 38.0761 6.63703 38.068 6.65123C38.0552 6.65833 38.0446 6.66889 38.0375 6.6817C37.5006 7.16033 37.0078 7.68625 36.5651 8.25313C36.5416 8.27477 36.5279 8.305 36.527 8.33694C36.524 8.35459 36.524 8.37263 36.527 8.39027C36.5222 8.38815 36.5167 8.38815 36.5118 8.39027C36.4756 8.39569 36.4429 8.41478 36.4204 8.44361C34.767 10.5973 34.075 12.7985 34.3442 15.0474C34.748 18.1522 36.6839 19.7839 40.1518 19.9427C40.8124 19.9827 41.4751 19.975 42.1347 19.9198C41.4246 20.0582 40.7051 20.1422 39.9823 20.1712C36.4267 20.3617 34.1188 18.9934 33.0585 16.0665C32.2 13.6665 32.8077 11.2252 34.8813 8.74266C35.8282 7.56309 36.9612 6.54591 38.2356 5.73123C38.2356 5.73123 38.2451 5.73123 38.2508 5.73123C38.2835 5.70949 38.3077 5.67722 38.3194 5.6398C38.325 5.60103 38.3197 5.56146 38.3042 5.52551C38.2853 5.49027 38.2519 5.46517 38.2127 5.45694C38.1758 5.44355 38.1354 5.44355 38.0985 5.45694C36.6457 6.22341 35.343 7.24547 34.2527 8.47408C31.8477 11.1179 31.1004 14.0227 32.0108 17.1884C32.7918 19.9007 34.9435 21.3693 38.4661 21.5941C38.5899 21.5941 38.7118 21.6055 38.8356 21.6169C38.3042 21.6265 37.767 21.6169 37.2261 21.5846C33.0547 21.3928 30.6115 19.5363 29.8966 16.015C29.4407 13.6354 30.3213 11.1871 32.5385 8.67027C33.5478 7.48782 34.7164 6.45126 36.0108 5.59027C36.0442 5.56928 36.0686 5.53673 36.0794 5.49885C36.0835 5.45871 36.0755 5.41827 36.0566 5.38266C36.0381 5.34943 36.0073 5.3248 35.9708 5.31408C35.9322 5.30478 35.8914 5.31022 35.8566 5.32932H35.8413C35.8355 5.33672 35.8275 5.34206 35.8185 5.34456C34.271 6.21573 32.8804 7.33984 31.7042 8.67027C29.1061 11.5134 28.2254 14.4703 29.0623 17.5407C29.9512 20.7484 32.2134 22.5693 35.8489 23.0036C35.447 22.9922 35.0451 22.9693 34.647 22.9331C29.9029 22.5052 27.2997 20.1814 26.8375 15.9617C26.6229 13.9871 26.96 12.1973 27.8489 10.5922C28.5067 9.38837 29.6991 7.96615 31.4261 6.32551C33.1531 4.68488 35.5454 3.13758 38.6032 1.68361C39.8793 1.06412 41.1857 0.509131 42.5175 0.020752L43.6604 2.64551Z" fill="#616D77"/>
</g>
</g>
<defs>
<clipPath id="clip0">
<rect width="105.833" height="40" fill="white" transform="translate(0.583252)"/>
</clipPath>
<clipPath id="clip1">
<rect width="95.2381" height="33.3333" fill="white" transform="translate(0.583252)"/>
</clipPath>
</defs>
</svg>
