<svg xmlns="http://www.w3.org/2000/svg" width="159" height="48" fill="none"><defs/><path fill="#1D2F3C" d="M96.447 47.889c-.61-.368-1.35-.384-1.926-.83-1.087-.815-1.695-1.852-1.712-3.193-.016-2.746 0-5.475-.016-8.221 0-.447.18-.655.609-.655.938-.016 1.86 0 2.798 0 .576 0 .642.352.642.799-.017 2.043 0 4.102-.017 6.145 0 .511 0 1.006.132 1.5.247.959.823 1.485 1.712 1.55.856.047 1.761-.496 2.057-1.31a5.142 5.142 0 00.313-1.803c-.017-2.108-.017-4.199-.049-6.306 0-.383.164-.575.51-.575a97.197 97.197 0 013.045 0c.362 0 .527.192.527.56-.017 3.782-.017 7.55-.017 11.333 0 .415-.197.575-.592.575h-2.552c-.378 0-.625-.144-.675-.543-.065-.383-.395-.447-.592-.224-.659.687-1.58.798-2.37 1.197h-1.827zM112.083 47.889c-.526-.384-1.185-.304-1.761-.543-2.913-1.181-3.967-4.15-3.621-6.832.313-2.379 1.383-4.31 3.769-5.284 2.008-.83 4.115-.878 6.156-.096 1.893.718 2.848 2.219 3.259 4.087.099.415-.065.622-.493.622-.955.016-1.926 0-2.881 0-.428 0-.592-.255-.724-.622-.395-1.134-1.07-1.66-2.107-1.676-1.218-.017-1.975.478-2.42 1.628-.526 1.325-.493 2.65-.065 3.974.345 1.07 1.119 1.693 2.255 1.804 1.152.112 1.942-.383 2.337-1.468.132-.351.395-.463.773-.463.873.016 1.762 0 2.634.016.724.016.84.223.626.894-.675 2.09-2.074 3.368-4.346 3.687-.197.032-.444.032-.576.24-.955.032-1.876.032-2.815.032zM102.998 17.59c0 1.39-.017 2.762.016 4.151.017.511-.197.75-.708.75-.856 0-1.695-.015-2.55 0-.626.016-.89-.239-.873-.862.016-1.963.033-3.942 0-5.906-.017-.734.016-1.484-.395-2.155-.395-.638-.972-.894-1.729-.814-.707.064-1.25.4-1.547 1.022-.23.479-.378.973-.362 1.532.033 2.075-.016 4.15.017 6.226.016.75-.297.99-1.021.957-.79-.032-1.597 0-2.387-.015-.592 0-.823-.224-.806-.878.066-3.145.033-6.274.033-9.419 0-2.155-.017-4.31-.05-6.449 0-.494.247-.654.708-.638.905.016 1.81.032 2.716 0 .625-.016.806.271.806.83-.016 1.437 0 2.873-.016 4.31 0 .207-.115.447.148.559.247.111.395-.112.56-.256 1.563-1.213 3.292-1.245 5.02-.495 1.695.719 2.453 2.108 2.436 3.895-.016 1.23 0 2.443 0 3.672-.033-.016-.033-.016-.016-.016zM121.07 38.758v-7.663c0-1.085 0-1.085 1.169-1.085.626 0 1.268.048 1.893-.016.741-.064 1.037.176 1.004.926-.049 1.516-.016 3.033-.016 4.55 0 .19-.017.382.181.494.23.128.362-.064.477-.191 1.514-1.437 3.275-1.469 5.086-.719 1.745.719 2.436 2.155 2.469 3.895.049 2.602 0 5.22.016 7.822 0 .543-.263.687-.757.687a39.626 39.626 0 00-2.386 0c-.708.047-.971-.224-.971-.91.032-2.076.016-4.15 0-6.226 0-.43-.033-.846-.099-1.261-.165-.846-.79-1.437-1.58-1.5-.922-.08-1.794.398-2.124 1.18-.263.655-.345 1.326-.345 2.028.016 1.948-.017 3.879.016 5.827.017.67-.23.91-.905.862a18.504 18.504 0 00-2.305 0c-.707.047-.872-.24-.855-.894.049-2.586.032-5.204.032-7.806zM142.139 13.792c-.362 0-.708-.016-1.07 0-.494.032-.806-.144-1.02-.607-.445-.974-2.19-1.309-3.029-.607-.56.48-.527 1.022.132 1.437.888.543 1.942.51 2.913.718.807.16 1.58.352 2.337.687 1.416.622 2.189 1.692 2.206 3.176.016 1.501-.642 2.714-2.008 3.512-1.844 1.054-3.852 1.102-5.876.83-1.054-.143-2.074-.415-2.996-1.005-1.086-.687-1.564-1.724-1.827-2.89-.099-.415.099-.67.56-.686.987-.016 1.975 0 2.962-.016.33 0 .461.16.593.447.609 1.277 2.189 1.804 3.522 1.213.428-.191.774-.479.807-.926.033-.43-.296-.734-.659-.941-.79-.48-1.695-.56-2.584-.687a12.226 12.226 0 01-2.913-.766c-2.568-1.054-2.337-4.055-.922-5.54 1.103-1.196 2.601-1.564 4.132-1.723 1.218-.128 2.452-.08 3.654.287 1.629.495 2.683 1.469 3.045 3.113.164.75 0 .958-.807.974h-1.152zM118.503 16.17v-5.507c0-.51.214-.798.773-.798.626.016 1.268.016 1.893 0 .576-.016 1.07 0 1.235.718.131.51.559.271.773.064.708-.67 1.58-.958 2.519-1.038 2.864-.24 4.971 1.213 5.135 3.895.165 2.73.033 5.476.049 8.221 0 .607-.279.782-.855.766-.823-.015-1.646-.032-2.469 0-.642.016-.873-.239-.856-.846.016-2.155.016-4.31.016-6.465 0-.479-.016-.957-.247-1.404-.312-.607-.74-1.022-1.514-1.038-.774-.016-1.399.224-1.794.894a3.003 3.003 0 00-.445 1.596c.017 2.107-.016 4.199.017 6.306.016.718-.263 1.021-1.004.973-.79-.048-1.597-.016-2.387 0-.559 0-.839-.207-.839-.814.033-1.851 0-3.687 0-5.523zM70.918 16.17c0 1.804-.017 3.608.016 5.427.016.655-.247.926-.922.894-.658-.032-1.317-.015-1.975 0-.494.016-.905-.015-1.07-.606-.132-.415-.411-.24-.691-.032-1.547 1.15-3.292 1.261-5.053.638-1.778-.638-2.667-1.963-2.667-3.799-.016-2.681.017-5.363-.016-8.045 0-.559.214-.766.773-.75.856.016 1.696.016 2.552 0 .609-.016.823.287.823.83-.017 2.011-.017 4.038-.033 6.05 0 .622.115 1.213.247 1.803.164.767.84 1.23 1.678 1.246.922.016 1.663-.463 1.943-1.31.164-.526.263-1.069.263-1.643-.016-2.028.017-4.04-.016-6.066-.017-.687.214-.974.954-.942.757.048 1.531.032 2.305 0 .658-.016.938.223.921.878-.049 1.82-.016 3.623-.032 5.427zM71.675 30.01c2.172 0 4.329.016 6.501-.016.757-.016 1.07.176 1.07.974-.033 2.41 0 2.41-2.469 2.41h-1.81c-1.202 0-1.218 0-1.218 1.15 0 4.022-.017 8.029.016 12.052 0 .718-.23.925-.938.893a22.713 22.713 0 00-2.551 0c-.675.032-.922-.175-.906-.846.033-4.118 0-8.252.033-12.37 0-.703-.247-.879-.905-.863-1.185.032-2.354-.016-3.539.016-.691.016-1.02-.207-.971-.926a12.92 12.92 0 000-1.596c-.033-.67.28-.878.938-.878 2.255.016 4.494 0 6.749 0zM52.647 41.232c0-1.788.017-3.56-.016-5.348-.017-.638.214-.941.905-.91.543.032 1.103.016 1.646 0 .609-.015 1.185-.08 1.317.783.066.479.46.255.74.016.972-.83 2.09-1.262 3.375-1.166 2.37.176 4.197 1.565 4.263 4.087.066 2.682 0 5.363.033 8.061 0 .527-.181.718-.708.703a42.427 42.427 0 00-2.469 0c-.642.031-.872-.208-.856-.83.033-2.076.017-4.151.017-6.226 0-.431-.033-.846-.132-1.261-.214-.958-.79-1.533-1.646-1.596-.938-.064-1.794.478-2.107 1.34-.23.639-.296 1.293-.296 1.964-.017 1.995-.017 3.99.016 5.986.017.463-.115.638-.576.638a82.08 82.08 0 00-2.798 0c-.543.016-.708-.223-.708-.734v-5.507zM45.553 13.744c0-2.586.017-5.156-.017-7.742-.016-.67.165-.974.922-.926.873.048 1.761.048 2.634 0 .675-.032.922.223.922.878-.017 4.038.016 8.077-.033 12.132 0 .782.28.958 1.004.958 1.893-.032 3.785.015 5.678-.017.725-.015 1.087.192 1.02.958a11.38 11.38 0 000 1.676c.034.575-.213.83-.806.83H46.343c-.609 0-.79-.287-.79-.846.017-2.65 0-5.267 0-7.901zM73.6 17.59c0-1.356-.016-2.713.017-4.07.016-.59-.165-.941-.823-.862-.774.096-.971-.287-.905-.941a3.23 3.23 0 000-.799c-.1-.782.197-1.165 1.053-1.053.445.048.642-.16.675-.59.05-.48.148-.943.214-1.406.197-1.564 1.399-2.713 3.44-2.777.872-.032 1.761-.096 2.634.016 1.333.16.493 1.213.674 1.836.116.447.033.91-.707.846-.84-.08-1.597.127-1.926.99-.263.686 0 1.1.757 1.1 1.926-.031 1.63-.015 1.646 1.66.016 1.118 0 1.118-1.185 1.118-1.267 0-1.267 0-1.267 1.245 0 2.554-.017 5.109.016 7.663 0 .686-.247.973-.955.941a31.861 31.861 0 00-2.469 0c-.625.032-.889-.207-.872-.83.016-1.372-.017-2.73-.017-4.086zM82.917 16.521c0-.99-.017-1.963 0-2.953.016-.638-.23-.974-.906-.91-.757.08-.987-.271-.905-.926.017-.207 0-.43 0-.638 0-1.117 0-1.133 1.12-1.213.526-.032.707-.32.69-.782 0-.767.017-1.549-.016-2.315-.016-.575.214-.846.807-.83.856.016 1.695.016 2.551 0 .61-.016.84.255.807.83-.017.75.032 1.484-.017 2.235-.05.702.263.91.905.862.198-.016.379.016.576 0 .642-.048.906.255.856.862-.016.127 0 .271 0 .399 0 1.452 0 1.468-1.53 1.516-.577.016-.84.24-.823.83.033 1.533 0 3.081.016 4.63.017 1.213.362 1.58 1.63 1.548.74-.016.938.255.921.942-.066 2.187.297 1.883-1.975 1.9-.708 0-1.415.031-2.123-.08-1.613-.24-2.535-1.166-2.584-2.778-.033-1.07 0-2.107 0-3.129zM50.047 38.71c0 2.634-.017 5.268.016 7.886.016.67-.214.91-.889.877a29.023 29.023 0 00-2.633 0c-.61.032-.807-.191-.79-.782.016-5.315.016-10.631 0-15.947 0-.526.197-.734.707-.734.939 0 1.86.016 2.799 0 .592-.016.822.223.806.814-.017 2.618-.017 5.252-.017 7.886z"/><path fill="#1D2F3C" fill-rule="evenodd" d="M157.091 22.49c.488.048.986.096 1.409-.302 0-.111 0-.207-.016-.335-.213-.258-.2-.558-.188-.857.003-.07.006-.142.006-.212 0-.772.002-1.544.004-2.315.004-1.543.007-3.086-.004-4.63-.016-1.947-1.3-3.607-3.127-4.102a10.424 10.424 0 00-5.81.064c-1.712.51-2.996 1.931-3.111 3.432-.033.463.099.638.56.638h.024a67.357 67.357 0 012.527-.016c.378.016.592-.111.773-.446.609-1.23 2.074-1.645 3.309-.958.411.223.724.542.691 1.005-.033.431-.395.703-.79.83-.494.16-1.004.256-1.514.352-.228.042-.456.082-.684.121-1.242.217-2.488.435-3.629 1.028-1.316.687-2.123 1.708-2.123 3.225 0 1.5.675 2.617 2.041 3.288 2.173 1.07 4.312 1.006 6.37-.32.034-.022.07-.049.107-.077.198-.147.432-.321.584-.066.437.74 1.087.692 1.728.645.133-.01.266-.02.396-.022.153 0 .309.015.467.03zm-6.097-2.416c.098-.002.193-.003.28.007 2.123.096 2.914-1.021 3.062-2.761.049-.575-.28-.83-.873-.655-.26.078-.532.138-.806.198-.176.039-.353.078-.527.121-.097.026-.196.05-.294.075-.583.144-1.174.29-1.681.66-.955.686-.856 1.772.214 2.266.209.096.425.093.625.09zM81.988 47.654c.225.036.452.073.632.235.873 0 1.762 0 2.634-.016.213-.179.462-.216.717-.253l.122-.019c1.153-.191 2.173-.67 3.029-1.468 1.794-1.676 2.09-3.815 1.827-6.082-.247-2.155-1.317-3.831-3.374-4.725-2.403-1.038-4.889-1.022-7.308.032-1.63.718-2.7 1.931-3.16 3.64-.28 1.053-.38 2.122-.28 3.224.28 2.841 2.172 4.9 5.036 5.411.041.008.083.014.125.021zm4.665-4.666c.214-.559.247-1.133.214-1.644 0-.128.004-.245.008-.358a4.413 4.413 0 00-.008-.616c-.132-1.58-1.185-2.713-2.6-2.841-1.58-.128-2.848.686-3.21 2.139-.247.99-.214 2.027-.033 3.017.214 1.26 1.382 2.219 2.617 2.282 1.448.08 2.535-.654 3.012-1.979zM117.085 19.102l.002-.681a32.742 32.742 0 01-.052-2.398c.003-.939.007-1.814-.112-2.694-.231-1.66-1.103-2.858-2.667-3.417-2.354-.846-4.74-.814-7.028.24-1.284.59-2.091 1.596-2.272 3.017-.065.479.099.702.593.702l.823-.003a63.602 63.602 0 011.646.003c.395 0 .642-.16.823-.51a2.227 2.227 0 012.584-1.166c.675.176 1.448.4 1.399 1.213-.049.735-.773.926-1.448 1.07-.432.09-.865.167-1.297.244-1.1.197-2.195.392-3.246.793-1.465.56-2.568 1.469-2.733 3.081-.164 1.708.494 3.017 2.124 3.784 2.107.99 4.181.893 6.156-.336.444-.271.79-.479 1.07.16.082.191.312.271.559.271h2.551c.412 0 .56-.191.544-.606-.026-.98-.022-1.96-.019-2.767zm-7.246.986a2.51 2.51 0 01.154-.007c1.613.223 3.111-.878 2.963-2.937-.033-.463-.28-.67-.692-.495-.349.145-.705.208-1.059.27a7.279 7.279 0 00-.829.183c-.61.16-1.21.318-1.683.792-.346.351-.642.702-.494 1.181.165.511.56.862 1.086.99.193.047.395.033.554.023zM27.497 13.871C27.563 6.592 21.522.638 14.214.638 6.576.654.634 6.29.503 13.472c-.149 7.679 6.073 13.33 13.381 13.377 7.67.048 13.547-5.73 13.613-12.978zM15.284 25.444c5.793-.558 10.83-5.427 10.847-11.732-.182-6.976-5.745-11.797-12.28-11.749C6.955 2.027 1.836 7.55 1.87 13.855c.033 6.338 5.596 12.324 13.415 11.59z" clip-rule="evenodd"/><path fill="#1D2F3C" d="M10.74 13.425c-.658.015-1.168-.32-1.728-.48-.197-.047-.46-.303-.576-.063-.18.35.247.319.428.43 2.453 1.517 5.547.751 6.666-1.74.165-.35.412-.59.856-.622 2.683-.255 5.366-.191 8.033-.032.197.016.609-.063.56.288-.067.335-.445.35-.758.287-1.481-.303-2.996-.207-4.493-.24-.116 0-.214 0-.33.017-.164.016-.362.047-.378.239-.017.24.197.271.411.271h2.634c.527 0 1.037-.016 1.547.144.198.064.527-.032.527.24-.017.287-.33.27-.576.27-1.432-.015-2.848-.015-4.28-.031-.197 0-.378 0-.576.016-.165.016-.362.064-.362.24 0 .175.181.255.362.239.461-.032.922-.096 1.383-.096.872-.016 1.744-.048 2.617.096.247.048.642-.096.609.303-.017.303-.379.335-.659.335-1.201 0-2.42-.016-3.62.016-.396.016-1.136-.24-1.104.224.033.463.79.191 1.218.191.955 0 1.91-.032 2.881-.032.214 0 .51-.016.477.288-.033.287-.296.319-.56.287-2.123-.24-4.18.032-6.172.814-.79.303-.806.51-.131 1.054 1.58 1.245 3.456 1.756 5.448 1.947.197.016.494-.128.576.144.082.271-.23.399-.395.543-.313.303-.691.223-1.086.127-4.264-.926-8.181-2.666-11.9-4.916-1.482-.91-3.03-1.692-4.676-2.267a2.778 2.778 0 01-.444-.208c-.181-.095-.313-.24-.23-.447.098-.239.296-.27.543-.175.56.24 1.086.351 1.58-.144.148-.16.362-.032.543.032 1.58.639 3.177 1.277 4.757 1.932.165.08.379.127.379.479z"/></svg>