<svg width="41" height="40" viewBox="0 0 41 40" fill="none" xmlns="http://www.w3.org/2000/svg">
<path fill-rule="evenodd" clip-rule="evenodd" d="M20.5 36C29.3366 36 36.5 28.8366 36.5 20C36.5 11.1634 29.3366 4 20.5 4C11.6634 4 4.5 11.1634 4.5 20C4.5 28.8366 11.6634 36 20.5 36ZM19.6094 14.3359C18.9957 13.9268 18.2066 13.8886 17.5563 14.2367C16.906 14.5847 16.5 15.2624 16.5 16V24C16.5 24.7376 16.906 25.4153 17.5563 25.7634C18.2066 26.1114 18.9957 26.0732 19.6094 25.6641L25.6094 21.6641C26.1658 21.2932 26.5 20.6687 26.5 20C26.5 19.3313 26.1658 18.7068 25.6094 18.3359L19.6094 14.3359Z" fill="#356AFD"/>
</svg>
