<svg xmlns="http://www.w3.org/2000/svg" width="24" height="19" fill="none"><defs/><path fill="#000" d="M8.148.352c.563 0 1.063.156 1.5.468.454.313.68.657.68 1.032 0 .234-.148.507-.445.82C8.867 3.687 8.156 4.539 7.75 5.227c-.39.671-.586 1.359-.586 2.062 0 .5.258.953.774 1.36 1.015.78 1.726 1.53 2.132 2.25.407.718.61 1.57.61 2.554 0 1.531-.492 2.813-1.477 3.844C8.22 18.312 6.984 18.82 5.5 18.82c-1.656 0-3.016-.648-4.078-1.945C.484 15.719.016 14.352.016 12.773c0-3.765 1.82-7.453 5.46-11.062C6.368.82 7.259.367 8.149.35zm12.422 0c.563 0 1.063.156 1.5.468.453.313.68.657.68 1.032 0 .234-.156.507-.469.82-1 1.015-1.703 1.867-2.11 2.555-.39.671-.585 1.359-.585 2.062 0 .5.258.953.773 1.36 1.016.78 1.727 1.53 2.133 2.25.406.718.61 1.57.61 2.554 0 1.531-.493 2.813-1.477 3.844-.984 1.015-2.219 1.523-3.703 1.523-1.656 0-3.016-.648-4.078-1.945-.938-1.156-1.406-2.523-1.406-4.102 0-3.765 1.82-7.453 5.46-11.062C18.79.82 19.68.367 20.57.35z" opacity=".05"/></svg>