<svg xmlns="http://www.w3.org/2000/svg" width="142" height="30" fill="currentColor"><defs/><path d="M138.245 29.492a2.71 2.71 0 002.707-2.707 2.71 2.71 0 00-2.707-2.708 2.71 2.71 0 00-2.708 2.708 2.71 2.71 0 002.708 2.707zm0-4.753a2.04 2.04 0 012.045 2.046 2.04 2.04 0 01-2.045 2.046 2.04 2.04 0 01-2.046-2.046 2.04 2.04 0 012.046-2.046zm-.756 3.562c.255 0 .33-.146.33-.354v-.87h.223l.463.87c.094.175.17.354.406.354.246 0 .345-.094.345-.26a.38.38 0 00-.043-.155l-.524-.856c.472-.018.737-.288.737-.808 0-.685-.501-.86-1.096-.86h-.832c-.279 0-.34.142-.34.308v2.272c-.005.241.071.36.331.36zm.33-2.405h.553c.246 0 .392.067.392.331 0 .265-.146.326-.392.326h-.553v-.657zM11.679 8.911c-1.87 0-3.704.638-5.126 1.871V3.445C6.553 1.649 5.43.449 3.86.449c-1.573 0-2.693 1.196-2.693 2.996V26.5c0 1.796 1.124 2.996 2.693 2.996 1.498 0 2.358-.822 2.693-2.245 1.011 1.645 3.104 2.471 4.942 2.471 5.429 0 8.868-5.05 8.868-10.143 0-5.245-2.882-10.669-8.684-10.669zm-.897 15.866c-2.958 0-4.229-2.996-4.229-5.613 0-2.623 1.347-5.316 4.229-5.316 2.806 0 4.19 2.958 4.19 5.5 0 2.509-1.384 5.429-4.19 5.429zM24.143.449c-1.573 0-2.693 1.196-2.693 2.996V26.5c0 1.796 1.125 2.996 2.693 2.996 1.573 0 2.693-1.2 2.693-2.996V3.445c0-1.796-1.12-2.996-2.693-2.996zm19.234 8.684c-1.573 0-2.693 1.196-2.693 2.996v9.62c0 2.243-1.682 3.481-3.482 3.481-1.8 0-3.482-1.233-3.482-3.482v-9.62c0-1.795-1.124-2.995-2.693-2.995-1.573 0-2.693 1.196-2.693 2.996v9.732c0 4.791 3.18 7.858 8.868 7.858 5.689 0 8.869-3.071 8.869-7.858V12.13c0-1.8-1.12-2.996-2.694-2.996zm23.109 9.582c0-4.493-3.855-9.804-9.695-9.804-5.689 0-9.657 4.975-9.657 10.442 0 5.953 4.04 10.366 10.106 10.366 4.006 0 8.792-2.245 8.792-4.564 0-1.163-1.048-2.32-2.206-2.32-1.422 0-3.331 2.168-6.1 2.168-2.508 0-4.715-1.233-5.088-3.893h11.49c1.65 0 2.358-.784 2.358-2.395zm-13.957-1.2c.26-2.282 1.871-4.115 4.267-4.115 2.508 0 4.006 1.757 4.304 4.115h-8.57zm16.726 8.982c0 1.795 1.124 2.995 2.693 2.995 1.573 0 2.693-1.2 2.693-2.995V14.07h1.682c1.573 0 2.73-.675 2.73-2.357 0-1.72-1.124-2.358-2.73-2.358H74.64V7.15c0-1.985.897-1.985 1.795-1.985 1.498 0 2.207-.708 2.207-2.282 0-1.87-1.834-2.433-3.742-2.433-3.293 0-5.651 2.169-5.651 6.138v2.768h-1.2c-1.347 0-2.358 1.011-2.358 2.358 0 1.46.898 2.357 2.358 2.357h1.2v12.427h.005zm17.59 3.222c2.06 0 3.742-.86 5.126-2.51.373 1.423 1.011 2.283 2.584 2.283 2.58 0 2.58-2.136 2.58-3.52V12.648c0-1.384 0-3.515-2.58-3.515-1.308 0-2.433.936-2.584 2.244-1.195-1.686-3.142-2.47-5.126-2.47-4.942 0-8.906 4.526-8.906 10.441 0 6.067 3.855 10.37 8.906 10.37zm.75-15.87c2.845 0 4.154 2.92 4.154 5.499 0 2.584-1.347 5.429-4.153 5.429-2.92 0-4.267-2.845-4.267-5.429 0-2.58 1.31-5.5 4.267-5.5zm20.733 15.87c1.946 0 6.586-.936 6.586-3.704 0-1.271-1.049-2.358-2.32-2.358-.638 0-2.655 1.124-4.006 1.124-2.92 0-4.527-2.768-4.527-5.428 0-2.769 1.46-5.5 4.527-5.5 1.72 0 2.92 1.05 4.266 1.05 1.271 0 2.06-1.46 2.06-2.585 0-2.623-4.455-3.407-6.586-3.407-5.689 0-9.657 4.975-9.657 10.442 0 5.613 3.855 10.366 9.657 10.366zm17.028 0c4.002 0 8.792-2.245 8.792-4.564 0-1.163-1.048-2.32-2.206-2.32-1.422 0-3.331 2.168-6.1 2.168-2.508 0-4.715-1.233-5.088-3.893h11.49c1.649 0 2.358-.784 2.358-2.395 0-4.493-3.855-9.804-9.695-9.804-5.689 0-9.657 4.975-9.657 10.442 0 5.948 4.044 10.366 10.106 10.366zm-.449-16.32c2.509 0 4.006 1.758 4.304 4.116h-8.571c.26-2.282 1.871-4.115 4.267-4.115z"/></svg>
